<?xml version="1.0" encoding="UTF-8" standalone="no"?>
<!-- Created with Inkscape (http://www.inkscape.org/) -->

<svg
   width="52.42815mm"
   height="58.462292mm"
   viewBox="0 0 52.428151 58.462292"
   version="1.1"
   id="svg1"
   xml:space="preserve"
   sodipodi:docname="LogoL.svg"
   inkscape:version="1.3.2 (091e20e, 2023-11-25, custom)"
   xmlns:inkscape="http://www.inkscape.org/namespaces/inkscape"
   xmlns:sodipodi="http://sodipodi.sourceforge.net/DTD/sodipodi-0.dtd"
   xmlns="http://www.w3.org/2000/svg"
   xmlns:svg="http://www.w3.org/2000/svg"><sodipodi:namedview
     id="namedview1"
     pagecolor="#ffffff"
     bordercolor="#000000"
     borderopacity="0.25"
     inkscape:showpageshadow="2"
     inkscape:pageopacity="0.0"
     inkscape:pagecheckerboard="0"
     inkscape:deskcolor="#d1d1d1"
     inkscape:document-units="mm"
     inkscape:zoom="8.2322651"
     inkscape:cx="99.122172"
     inkscape:cy="110.47992"
     inkscape:window-width="3840"
     inkscape:window-height="2054"
     inkscape:window-x="2869"
     inkscape:window-y="-11"
     inkscape:window-maximized="1"
     inkscape:current-layer="layer1" /><defs
     id="defs1"><rect
       x="79.807926"
       y="73.491317"
       width="129.36901"
       height="28.181794"
       id="rect3" /><rect
       x="82.844757"
       y="38.142601"
       width="109.56887"
       height="32.068938"
       id="rect2" /><rect
       x="79.686452"
       y="33.040724"
       width="151.35567"
       height="29.275053"
       id="rect1" /><rect
       x="105.52549"
       y="841.73547"
       width="145.67294"
       height="45.343044"
       id="rect6" /><rect
       x="224.01025"
       y="859.01453"
       width="271.14108"
       height="42.470894"
       id="rect5" /></defs><g
     id="layer1"
     transform="translate(-61.208569,-109.22146)"><path
       id="path1"
       style="fill:#ffff00;fill-opacity:1;stroke:none;stroke-width:1;stroke-opacity:1"
       d="m 61.317029,109.22182 -0.0075,4.03587 -0.0075,4.03586 2.42152,0.005 2.421521,0.005 -0.03923,21.12103 -0.03923,21.12104 -2.421521,-0.005 -2.42152,-0.005 -0.0075,4.03586 -0.0075,4.03587 20.582914,0.0382 20.582917,0.0382 0.0192,-10.35872 0.0192,-10.35873 -3.632277,-0.007 -3.63228,-0.007 -10e-4,0.53812 -0.001,0.53812 2.42151,0.005 2.42152,0.005 -0.003,1.34528 -0.003,1.3453 -0.80718,-0.002 -0.80717,-0.002 -0.002,0.80717 -0.002,0.80717 -0.80717,-0.002 -0.80718,-0.002 -0.004,2.28699 -0.004,2.28699 0.40359,5.1e-4 0.40358,5.1e-4 0.003,-1.74888 0.003,-1.74888 0.80717,0.002 0.80717,0.002 0.002,-0.9417 0.002,-0.9417 0.80718,0.002 0.807167,0.002 0.003,-1.74887 0.003,-1.74888 0.40358,5.1e-4 0.40359,5.1e-4 -0.004,2.15246 -0.004,2.15247 -0.80717,-0.002 -0.807177,-0.002 -0.001,0.53811 -10e-4,0.53811 0.807167,0.002 0.80717,0.002 -0.0125,6.72644 -0.0125,6.72645 -1.21076,-0.002 -1.210757,-0.002 0.001,-0.53811 0.001,-0.53812 0.80718,0.002 0.807167,0.002 0.004,-2.15246 0.004,-2.15247 -0.40359,-5.1e-4 -0.403587,-5.1e-4 -0.003,1.74888 -0.003,1.74888 -0.80718,-0.002 -0.80717,-0.002 -0.002,0.9417 -0.002,0.9417 -2.01793,-0.004 -2.01793,-0.004 0.003,-1.34529 0.003,-1.34529 0.40359,5.1e-4 0.40358,5.1e-4 -0.002,0.80718 -0.002,0.80717 0.40359,5e-4 0.40359,5.1e-4 0.003,-1.34528 0.003,-1.3453 -1.21076,-0.002 -1.21076,-0.002 -0.004,1.8834 -0.004,1.88341 -0.40359,-5.1e-4 -0.40359,-5.1e-4 0.002,-0.94171 0.002,-0.9417 -0.40358,-5.1e-4 -0.40359,-5.1e-4 -0.002,0.9417 -0.002,0.94171 -2.01793,-0.004 -2.01794,-0.004 0.002,-1.34529 0.002,-1.34529 0.80717,0.002 0.80717,0.002 0.002,-0.9417 0.002,-0.94171 0.80717,0.002 0.80718,0.002 7.6e-4,-0.40359 7.6e-4,-0.40358 -1.21076,-0.002 -1.21076,-0.002 -0.001,0.80717 -10e-4,0.80718 -0.40358,-5.1e-4 -0.40359,-5.1e-4 10e-4,-0.80717 0.001,-0.80718 -0.40359,-5.1e-4 -0.40358,-5.1e-4 -0.005,2.69059 -0.005,2.69058 -2.01793,-0.004 -2.01794,-0.004 0.002,-0.9417 0.002,-0.9417 -0.40359,-5.1e-4 -0.40358,-5.1e-4 -0.002,0.9417 -0.002,0.94171 -4.43945,-0.008 -4.439454,-0.008 0.0017,-0.9417 0.0017,-0.9417 -0.403587,-5.1e-4 -0.403587,-5.1e-4 -0.0017,0.9417 -0.0017,0.94171 -2.825107,-0.005 -2.825107,-0.005 0.0017,-0.9417 0.0017,-0.94171 -0.807173,-0.002 -0.807174,-0.002 0.0033,-1.74887 0.0033,-1.74888 -1.210761,-0.002 -1.21076,-0.002 -7.62e-4,0.40359 -7.63e-4,0.40359 0.807173,0.002 0.807173,0.002 -0.0025,1.34529 -0.0025,1.34529 -0.403587,-5.1e-4 -0.403587,-5.1e-4 0.0017,-0.9417 0.0017,-0.94171 -0.403587,-5.1e-4 -0.403586,-5.1e-4 -0.0025,1.34529 -0.0025,1.34529 1.614346,0.003 1.614347,0.003 -10e-4,0.53812 -0.001,0.53812 -2.017933,-0.004 -2.017934,-0.004 0.006,-3.22869 0.006,-3.22869 2.017933,0.004 2.017933,0.004 -0.0035,1.8834 -0.0035,1.88341 0.807173,0.002 0.807173,0.002 -0.0015,0.80718 -0.0015,0.80717 1.21076,0.002 1.21076,0.002 7.63e-4,-0.40359 7.62e-4,-0.40358 -0.807173,-0.002 -0.807174,-0.002 0.0017,-0.9417 0.0017,-0.9417 -0.807174,-0.002 -0.807173,-0.002 0.0075,-4.03587 0.0075,-4.03587 0.403586,5.1e-4 0.403587,5.1e-4 -0.0017,0.94171 -0.0017,0.9417 1.614347,0.003 1.614346,0.003 -7.62e-4,0.40359 -7.63e-4,0.40359 -1.614347,-0.003 -1.614347,-0.003 -0.001,0.53811 -10e-4,0.53812 2.017933,0.004 2.017933,0.004 0.0035,-1.8834 0.0035,-1.88341 1.21076,0.002 1.21076,0.002 -0.0035,1.88341 -0.0035,1.88341 0.403586,5e-4 0.403587,5.1e-4 0.0043,-2.28699 0.0043,-2.287 -2.017933,-0.004 -2.017934,-0.004 -0.0017,0.94171 -0.0017,0.9417 -1.21076,-0.002 -1.210761,-0.002 0.0017,-0.9417 0.0017,-0.9417 -0.807173,-0.002 -0.807174,-0.002 0.0025,-1.34529 0.0025,-1.34529 0.403587,5.1e-4 0.403587,5.1e-4 -0.0017,0.9417 -0.0017,0.9417 0.403587,5.1e-4 0.403586,5.1e-4 0.0017,-0.94171 0.0017,-0.9417 0.807173,0.002 0.807173,0.002 0.0017,-0.94171 0.0017,-0.94169 0.403587,5.1e-4 0.403586,5e-4 -0.0025,1.34529 -0.0025,1.34529 -0.807173,-0.002 -0.807173,-0.002 -0.0025,1.34529 -0.0025,1.34529 0.403586,5.1e-4 0.403587,5e-4 0.0015,-0.80717 0.0015,-0.80717 1.614347,0.003 1.614347,0.003 0.001,-0.53811 0.001,-0.53812 -0.807174,-0.002 -0.807173,-0.002 0.0025,-1.34529 0.0025,-1.34529 0.807173,0.002 0.807173,0.002 0.004,-2.15246 0.004,-2.15247 -0.403586,-5.1e-4 -0.403587,-5e-4 -0.0033,1.74887 -0.0033,1.74888 -1.614346,-0.003 -1.614347,-0.003 -0.0017,0.9417 -0.0017,0.94171 -1.21076,-0.002 -1.21076,-0.002 0.0043,-2.28699 0.0043,-2.28699 1.614347,0.003 1.614347,0.003 0.0025,-1.34529 0.0025,-1.34529 -0.403587,-5e-4 -0.403587,-5.1e-4 -0.0017,0.9417 -0.0017,0.9417 -1.21076,-0.002 -1.21076,-0.002 0.006,-3.2287 0.006,-3.22869 1.21076,0.002 1.21076,0.002 -0.0017,0.9417 -0.0017,0.9417 1.21076,0.002 1.21076,0.002 7.63e-4,-0.40358 7.62e-4,-0.40359 -0.807173,-0.002 -0.807173,-0.002 0.001,-0.53811 0.001,-0.53812 2.42152,0.005 2.42152,0.005 7.63e-4,-0.40358 7.62e-4,-0.40359 -0.807173,-0.002 -0.807174,-0.002 0.0033,-1.74887 0.0033,-1.74888 -0.403586,-5.1e-4 -0.403587,-5.1e-4 -0.0015,0.80718 -0.0015,0.80717 -0.807174,-0.002 -0.807173,-0.002 -0.001,0.53812 -0.001,0.53811 0.807173,0.002 0.807174,0.002 -7.63e-4,0.40358 -7.63e-4,0.40359 -1.21076,-0.002 -1.21076,-0.002 0.0017,-0.9417 0.0017,-0.9417 -0.403587,-5.1e-4 -0.403587,-5.1e-4 -0.0017,0.9417 -0.0017,0.94171 -1.21076,-0.002 -1.21076,-0.002 0.0025,-1.34529 0.0025,-1.34529 0.403587,5.1e-4 0.403587,5.1e-4 -0.0017,0.9417 -0.0017,0.9417 0.403587,5.1e-4 0.403586,5.1e-4 0.0017,-0.9417 0.0017,-0.9417 1.614347,0.003 1.614347,0.003 0.0017,-0.9417 0.0017,-0.94171 1.614347,0.003 1.614347,0.003 0.0025,-1.34529 0.0025,-1.34529 -0.403587,-5.1e-4 -0.403586,-5.1e-4 -0.0017,0.94171 -0.0017,0.9417 -2.017933,-0.004 -2.017934,-0.004 0.0025,-1.34529 0.0025,-1.34529 1.21076,0.002 1.21076,0.002 -7.63e-4,0.40359 -7.62e-4,0.40359 -0.807174,-0.002 -0.807173,-0.002 -0.001,0.53812 -0.001,0.53811 1.21076,0.002 1.21076,0.002 0.0017,-0.9417 0.0017,-0.9417 0.807173,0.002 0.807173,0.002 7.63e-4,-0.40359 7.62e-4,-0.40359 -1.614347,-0.003 -1.614346,-0.003 0.006,-3.22869 0.006,-3.22869 0.403587,5.1e-4 0.403587,5e-4 -0.005,2.69059 -0.005,2.69058 0.403587,5.1e-4 0.403586,5.1e-4 0.0015,-0.80717 0.0015,-0.80718 0.807174,0.002 0.807173,0.002 10e-4,-0.53812 0.001,-0.53811 -0.807173,-0.002 -0.807174,-0.002 0.0025,-1.34529 0.0025,-1.34529 0.807174,0.002 0.807173,0.002 0.004,-2.15246 0.004,-2.15247 -0.403586,-5e-4 -0.403587,-5.1e-4 -0.0033,1.74887 -0.0033,1.74887 -0.403586,-5.1e-4 -0.403587,-5.1e-4 0.0017,-0.9417 0.0017,-0.9417 -0.403587,-5.1e-4 -0.403586,-5.1e-4 -0.0017,0.9417 -0.0017,0.94171 -1.21076,-0.002 -1.21076,-0.002 7.63e-4,-0.40359 7.63e-4,-0.40359 0.807173,0.002 0.807173,0.002 0.0025,-1.34529 0.0025,-1.34529 -0.403586,-5.1e-4 -0.403587,-5.1e-4 -0.0015,0.80718 -0.0015,0.80717 -0.807174,-0.002 -0.807173,-0.002 -0.0043,2.28699 -0.0043,2.28699 0.403586,5.1e-4 0.403587,5.1e-4 0.0017,-0.9417 0.0017,-0.94171 0.403586,5.1e-4 0.403587,5.1e-4 -0.0025,1.34529 -0.0025,1.34529 -0.807173,-0.002 -0.807174,-0.002 -0.001,0.53811 -0.001,0.53812 0.807174,0.002 0.807173,0.002 -0.0025,1.34528 -0.0025,1.34529 -0.403586,-5e-4 -0.403587,-5.1e-4 0.0017,-0.9417 0.0017,-0.94171 -0.807174,-0.002 -0.807173,-0.002 0.0017,-0.94171 0.0017,-0.9417 -0.403587,-5.1e-4 -0.403586,-5e-4 -0.0043,2.28699 -0.0043,2.28699 0.403587,5.1e-4 0.403586,5.1e-4 0.0017,-0.94171 0.0017,-0.9417 0.403586,5.1e-4 0.403587,5.1e-4 -0.0025,1.34529 -0.0025,1.34528 -0.807173,-0.002 -0.807174,-0.002 -0.0025,1.34529 -0.0025,1.34529 0.403587,5.1e-4 0.403587,5.1e-4 0.0015,-0.80718 0.0015,-0.80717 0.403587,5.1e-4 0.403587,5.1e-4 -0.0015,0.80717 -0.0015,0.80717 0.807173,0.002 0.807173,0.002 -0.001,0.53812 -10e-4,0.53812 -2.017933,-0.004 -2.017933,-0.004 0.01249,-6.72645 0.01249,-6.72645 0.403586,5.1e-4 0.403587,5.1e-4 -0.0033,1.74888 -0.0033,1.74887 0.403587,5.1e-4 0.403586,5.1e-4 0.0057,-3.09417 0.0057,-3.09416 -0.403586,-5.1e-4 -0.403587,-5.1e-4 -0.0015,0.80718 -0.0015,0.80717 -0.403587,-5.1e-4 -0.403586,-5.1e-4 0.0025,-1.34529 0.0025,-1.34529 1.21076,0.002 1.21076,0.002 -0.0017,0.9417 -0.0017,0.9417 0.403586,5.1e-4 0.403587,5.1e-4 0.0017,-0.94171 0.0017,-0.94169 1.21076,0.002 1.210761,0.002 -0.0017,0.94171 -0.0017,0.9417 0.403587,5.1e-4 0.403586,5.1e-4 0.0017,-0.9417 0.0017,-0.9417 0.807173,0.002 0.807174,0.002 7.63e-4,-0.40359 7.62e-4,-0.40359 -1.614347,-0.003 -1.614346,-0.003 7.62e-4,-0.40359 7.63e-4,-0.40358 1.614347,0.003 1.614347,0.003 0.001,-0.53812 0.001,-0.53811 -0.807174,-0.001 -0.807174,-0.001 7.63e-4,-0.40359 7.63e-4,-0.40359 1.210759,0.002 1.210762,0.002 -0.002,0.9417 -0.002,0.9417 0.40359,7.6e-4 0.40358,7.7e-4 0.002,-0.9417 0.002,-0.94171 1.21076,0.002 1.21076,0.002 -0.002,0.9417 -0.002,0.9417 0.40359,7.6e-4 0.40359,7.7e-4 0.002,-1.34529 0.002,-1.34529 -1.61435,-0.003 -1.61435,-0.003 0.002,-0.9417 0.002,-0.9417 -0.40358,-7.7e-4 -0.40359,-7.6e-4 -0.002,0.9417 -0.002,0.94171 -1.210757,-0.002 -1.21076,-0.002 0.0017,-0.9417 0.0017,-0.9417 -4.439454,-0.008 -4.439454,-0.008 -7.62e-4,0.40359 -7.63e-4,0.40358 2.42152,0.004 2.421521,0.004 -0.0035,1.88341 -0.0035,1.8834 0.403586,7.7e-4 0.403587,7.6e-4 0.0035,-1.88341 0.0035,-1.8834 1.21076,0.002 1.21076,0.002 -0.0025,1.34529 -0.0025,1.34529 -0.403587,-7.6e-4 -0.403586,-7.6e-4 0.0015,-0.80718 0.0015,-0.80717 -0.403587,-7.6e-4 -0.403587,-7.7e-4 -0.0033,1.74888 -0.0033,1.74888 -2.017934,-0.004 -2.017933,-0.004 0.0017,-0.94171 0.0017,-0.9417 -0.403587,-7.6e-4 -0.403586,-7.6e-4 -0.0017,0.9417 -0.0017,0.9417 -1.21076,-0.002 -1.21076,-0.002 0.0017,-0.9417 0.0017,-0.9417 -0.403587,-7.6e-4 -0.403587,-7.6e-4 -0.0017,0.9417 -0.0017,0.9417 -0.403587,-5.1e-4 -0.403586,-5.1e-4 0.0067,-3.63228 0.0067,-3.63228 -0.403587,-7.6e-4 z m 1.614347,0.003 -0.0043,2.28699 -0.0043,2.28699 0.807173,0.001 0.807174,10e-4 -0.0017,0.94171 -0.0017,0.9417 0.403587,7.6e-4 0.403586,7.6e-4 0.0017,-0.9417 0.0017,-0.9417 1.21076,0.002 1.21076,0.002 -0.0017,0.94171 -0.0017,0.9417 0.403587,7.6e-4 0.403586,7.6e-4 0.0025,-1.34529 0.0025,-1.34528 -2.42152,-0.004 -2.42152,-0.004 0.0025,-1.34529 0.0025,-1.34529 5.246627,0.01 5.246627,0.01 -0.0015,0.80718 -0.0015,0.80717 0.403586,7.6e-4 0.403587,7.6e-4 0.0015,-0.80717 0.0015,-0.80717 1.210757,0.002 1.21076,0.002 -0.001,0.80718 -0.001,0.80717 1.21076,0.002 1.21076,0.002 7.6e-4,-0.40358 7.7e-4,-0.40359 -0.80718,-10e-4 -0.80717,-0.001 7.6e-4,-0.40359 7.6e-4,-0.40358 1.21076,0.002 1.21076,0.002 -0.006,3.09417 -0.006,3.09416 -1.21076,-0.002 -1.21076,-0.002 0.002,-0.9417 0.002,-0.9417 -0.40359,-7.6e-4 -0.40358,-7.6e-4 -0.002,0.9417 -0.002,0.9417 -0.80717,-0.002 -0.80718,-0.002 -0.007,3.63229 -0.007,3.63227 -0.807172,-0.002 -0.807174,-0.002 -7.62e-4,0.40359 -7.63e-4,0.40358 0.807174,0.002 0.807167,0.002 -0.002,1.34529 -0.002,1.34529 -0.807171,-0.002 -0.807173,-0.002 -7.63e-4,0.40358 -7.62e-4,0.40359 0.807173,0.002 0.807166,0.002 -0.006,3.22869 -0.006,3.2287 -0.807166,-0.002 -0.807173,-0.002 -0.0025,1.34529 -0.0025,1.34528 0.403587,5.1e-4 0.403586,5.1e-4 0.0017,-0.9417 0.0017,-0.9417 0.403587,5.1e-4 0.403589,5.1e-4 -0.004,2.28698 -0.004,2.287 -1.614352,-0.003 -1.614347,-0.003 -0.0015,0.80717 -0.0015,0.80718 -2.017933,-0.004 -2.017934,-0.004 0.0015,-0.80718 0.0015,-0.80717 -0.403586,-5.1e-4 -0.403587,-5.1e-4 -0.004,2.15246 -0.004,2.15247 0.403586,5.1e-4 0.403587,5e-4 0.0015,-0.80717 0.0015,-0.80718 1.21076,0.002 1.21076,0.002 -0.004,2.15246 -0.004,2.15247 -1.614347,-0.003 -1.614347,-0.003 -0.0025,1.3453 -0.0025,1.34528 0.403587,5.1e-4 0.403587,5.1e-4 0.0015,-0.80717 0.0015,-0.80717 1.614346,0.003 1.614347,0.003 0.0035,-1.88341 0.0035,-1.8834 1.21076,0.002 1.21076,0.002 -0.006,3.22869 -0.006,3.22869 -0.807173,-0.002 -0.807173,-0.002 -7.63e-4,0.40359 -7.63e-4,0.40359 1.21076,0.002 1.21076,0.002 0.0092,-4.97758 0.0092,-4.97756 -0.403586,-5.1e-4 -0.403587,-5.1e-4 -0.0017,0.9417 -0.0017,0.94171 -1.21076,-0.002 -1.21076,-0.002 7.63e-4,-0.40359 7.62e-4,-0.40359 0.807174,0.002 0.807173,0.002 0.0017,-0.9417 0.0017,-0.9417 1.21076,0.002 1.210756,0.002 -0.0107,5.78474 -0.0108,5.78475 -0.807166,-0.002 -0.807174,-0.002 -0.001,0.53811 -10e-4,0.53812 0.807174,0.002 0.807176,0.002 -0.006,3.09417 -0.006,3.09416 -1.210764,-0.002 -1.21076,-0.002 0.0033,-1.74888 0.0033,-1.74887 -0.403587,-5.1e-4 -0.403587,-5.1e-4 -0.0033,1.74888 -0.0033,1.74888 -2.42152,-0.005 -2.42152,-0.005 -7.63e-4,0.40358 -7.63e-4,0.40359 2.421521,0.005 2.421519,0.005 -0.0025,1.34529 -0.0025,1.34529 -0.403586,-5.1e-4 -0.403587,-5.1e-4 0.0015,-0.80717 0.0015,-0.80718 -0.403587,-5.1e-4 -0.403586,-5.1e-4 -0.0015,0.80717 -0.0015,0.80718 -0.403587,-5.1e-4 -0.403587,-5.1e-4 0.0015,-0.80717 0.0015,-0.80717 -1.21076,-0.002 -1.21076,-0.002 -7.62e-4,0.40359 -7.63e-4,0.40358 0.807173,0.002 0.807174,0.002 -0.0017,0.94171 -0.0017,0.9417 0.807173,0.002 0.807173,0.002 -0.0015,0.80717 -0.0015,0.80717 0.403586,5.1e-4 0.403587,5.1e-4 0.0015,-0.80717 0.0015,-0.80717 1.210761,0.002 1.210759,0.002 -0.0015,0.80718 -0.0015,0.80717 2.017933,0.004 2.01794,0.004 0.001,-0.80717 0.001,-0.80718 0.80718,0.002 0.80717,0.002 10e-4,-0.53811 0.001,-0.53812 -1.61435,-0.003 -1.61435,-0.003 7.6e-4,-0.40359 7.7e-4,-0.40359 1.61434,0.003 1.61435,0.003 7.6e-4,-0.40358 7.7e-4,-0.40359 -2.82511,-0.005 -2.825109,-0.005 -7.63e-4,0.40359 -7.63e-4,0.40359 0.807174,0.002 0.807171,0.002 -0.002,0.94171 -0.002,0.9417 0.80717,0.002 0.80717,0.002 -7.6e-4,0.40359 -7.6e-4,0.40359 -1.21076,-0.002 -1.210764,-0.002 0.0017,-0.9417 0.0017,-0.94171 -0.807174,-0.002 -0.807173,-0.002 0.0025,-1.34529 0.0025,-1.34529 3.632281,0.007 3.63228,0.007 -0.004,2.28698 -0.004,2.287 -0.80717,-0.002 -0.80718,-0.002 -7.6e-4,0.40359 -7.6e-4,0.40359 1.21076,0.002 1.21076,0.002 0.003,-1.74887 0.003,-1.74888 1.61434,0.003 1.61435,0.003 7.6e-4,-0.40359 7.7e-4,-0.40358 -1.61435,-0.003 -1.61435,-0.003 10e-4,-0.53811 0.001,-0.53811 2.01793,0.004 2.01793,0.004 -0.004,2.28699 -0.004,2.287 -0.40359,-5.1e-4 -0.40358,-5.1e-4 0.002,-0.9417 0.002,-0.94171 -1.21076,-0.002 -1.21076,-0.002 -10e-4,0.53812 -0.001,0.53812 0.80717,0.002 0.80718,0.002 -0.001,0.80717 -10e-4,0.80718 1.21076,0.002 1.21076,0.002 0.005,-2.69058 0.005,-2.69058 3.63229,0.007 3.63227,0.007 -0.001,0.53811 -10e-4,0.53811 -0.80717,-0.002 -0.80717,-0.002 -10e-4,0.80717 -0.001,0.80718 -0.80717,-0.002 -0.80718,-0.002 -0.002,0.94171 -0.002,0.9417 -0.80718,-0.002 -0.80717,-0.002 -7.6e-4,0.40359 -7.7e-4,0.40359 1.21076,0.002 1.21076,0.002 0.001,-0.80717 10e-4,-0.80718 0.80718,0.002 0.80717,0.002 0.002,-0.94169 0.002,-0.94171 2.42151,0.005 2.42152,0.005 5.1e-4,-0.40359 5.1e-4,-0.40358 -1.61434,-0.003 -1.61435,-0.003 0.001,-0.53811 10e-4,-0.53812 0.80718,0.002 0.80717,0.002 0.002,-0.80717 0.002,-0.80717 1.61435,0.003 1.61434,0.003 0.002,-0.94171 0.002,-0.94169 0.40358,5.1e-4 0.40359,5e-4 -0.003,1.34529 -0.003,1.34529 -1.61435,-0.003 -1.61435,-0.003 -5.1e-4,0.40359 -5.1e-4,0.40359 0.80717,0.002 0.80718,0.002 -0.003,1.34528 -0.003,1.34529 -0.80717,-0.002 -0.80717,-0.002 -0.003,1.3453 -0.003,1.34528 0.40358,5.1e-4 0.40359,5.1e-4 0.002,-0.80718 0.002,-0.80717 0.80718,0.002 0.80717,0.002 0.004,-1.8834 0.004,-1.8834 0.80717,0.002 0.807167,0.002 0.006,-3.09417 0.006,-3.09416 -1.210757,-0.002 -1.21076,-0.002 -5.1e-4,0.40359 -5.1e-4,0.40358 0.80717,0.002 0.80718,0.002 -0.001,0.53811 -10e-4,0.53812 -0.80717,-0.002 -0.80718,-0.002 -0.002,0.80717 -0.002,0.80718 -1.21076,-0.002 -1.21076,-0.002 0.006,-3.09417 0.006,-3.09416 0.80717,0.002 0.80718,0.002 5e-4,-0.40358 5.1e-4,-0.40359 -0.80717,-0.002 -0.80717,-0.002 10e-4,-0.53812 0.001,-0.53811 1.61435,0.003 1.61435,0.003 5e-4,-0.40359 5.1e-4,-0.40358 -2.01793,-0.004 -2.01794,-0.004 -0.01,5.38115 -0.01,5.38116 -9.28249,-0.0172 -9.28249,-0.0172 0.0392,-21.12104 0.0392,-21.12104 2.42152,0.005 2.42152,0.005 0.007,-4.03587 0.007,-4.03586 -9.282497,-0.0172 z" /><path
       style="font-size:32px;font-family:'Mystery Quest';-inkscape-font-specification:'Mystery Quest, 400';baseline-shift:baseline;white-space:pre;fill:#f6f6f8;stroke-width:0.1;stroke-linecap:round;stroke-linejoin:round"
       d="m 85.918029,135.27217 q -0.185008,0.0165 -0.361538,-0.005 -0.172319,-0.0255 -0.306723,-0.0931 -0.1386,-0.0717 -0.222462,-0.1896 -0.08806,-0.12208 -0.100342,-0.29867 -0.0123,-0.16398 0.05517,-0.27736 0.06327,-0.1134 0.164277,-0.17207 0.101006,-0.0587 0.227142,-0.0668 0.121941,-0.0124 0.226963,0.0299 0.109235,0.038 0.184735,0.13067 0.07551,0.0884 0.08367,0.22297 0.01225,0.19341 -0.08039,0.27732 -0.09265,0.0839 -0.222977,0.0879 -0.130333,0.004 -0.222712,-0.0551 -0.09658,-0.059 -0.104742,-0.19358 -0.0041,-0.0673 0.01703,-0.11348 0.01691,-0.0504 0.04639,-0.0798 0.02529,-0.0336 0.06315,-0.0461 0.03787,-0.0167 0.0715,-0.0167 0.07148,-0.004 0.113446,0.0339 0.04618,0.0337 0.05446,0.1052 0.0041,0.0673 -0.03802,0.0966 -0.04209,0.0251 -0.0967,0.004 -0.03781,-0.0127 -0.04193,-0.0589 -0.0083,-0.0463 0.01276,-0.084 -0.03785,0.008 -0.06313,0.0377 -0.02528,0.0294 -0.02539,0.0882 -1.41e-4,0.0757 0.0418,0.13041 0.04195,0.0505 0.159675,0.0423 0.05886,1.1e-4 0.09254,-0.0292 0.03789,-0.0294 0.05898,-0.0672 0.02109,-0.0378 0.02536,-0.0756 0.0085,-0.042 0.0085,-0.0673 4.7e-5,-0.0252 -0.01247,-0.0757 -0.0083,-0.0505 -0.04606,-0.0968 -0.03354,-0.0505 -0.100733,-0.0885 -0.06299,-0.0379 -0.172279,-0.0466 -0.113501,-0.004 -0.185048,0.0375 -0.07154,0.0377 -0.113696,0.10068 -0.04216,0.063 -0.05911,0.13442 -0.01695,0.0714 -0.01284,0.1261 0.004,0.10931 0.0669,0.19772 0.05869,0.0884 0.1805,0.14747 0.117611,0.0549 0.294141,0.0762 0.180734,0.0214 0.416214,-0.008 0.06336,-0.15964 0.122534,-0.33189 0.05918,-0.17226 0.109937,-0.34033 0.05076,-0.16807 0.08889,-0.32775 0.03813,-0.15968 0.0552,-0.29418 0.03843,-0.31943 -0.06213,-0.5004 -0.100554,-0.18516 -0.298127,-0.19393 l 0.01702,-0.10928 q 0.07565,0.0127 0.214351,0.0298 0.142905,0.0171 0.311043,0.03 0.168146,0.009 0.336307,0.009 0.168169,-0.004 0.302752,-0.0331 l 0.0041,0.0673 q -0.05468,0.0167 -0.10096,0.0334 -0.04628,0.0167 -0.07576,0.0461 -0.02948,0.0252 -0.04217,0.0714 -0.01268,0.042 0.004,0.10931 0.01668,0.0715 0.05415,0.27336 0.03746,0.20187 0.09161,0.47523 0.05414,0.27336 0.125028,0.5888 0.07088,0.31543 0.154425,0.60567 0.08354,0.29023 0.167208,0.5132 0.08787,0.22298 0.17589,0.36608 0.08803,0.1389 0.180422,0.18952 0.09239,0.0548 0.19337,0.009 0.0505,-0.0293 0.08843,-0.0797 0.03372,-0.0462 0.05908,-0.1176 0.02536,-0.0714 0.02976,-0.18072 l 0.06308,-0.0125 q 0.01669,0.0673 0.0081,0.17238 -0.0086,0.10088 -0.04662,0.20171 -0.03802,0.10083 -0.113837,0.17636 -0.07582,0.0797 -0.193557,0.0921 -0.09672,0.0124 -0.218593,-0.009 -0.117674,-0.0212 -0.239404,-0.12236 -0.117525,-0.10111 -0.230643,-0.31153 -0.108915,-0.2104 -0.188112,-0.5763 -0.02083,-0.10514 -0.04166,-0.20607 -0.02083,-0.10514 -0.04167,-0.20188 -0.121932,0.008 -0.332157,0.0204 -0.210225,0.0122 -0.437274,0.0286 -0.06355,0.26474 -0.09757,0.47067 -0.02125,0.12609 -0.0214,0.20596 0.004,0.0799 0.02498,0.13037 0.02093,0.0463 0.06712,0.0758 0.05039,0.0295 0.12602,0.0549 l -0.0044,0.0883 q -0.07144,-0.017 -0.21857,-0.0214 -0.147133,-0.004 -0.31531,0.004 -0.16398,0.0123 -0.327984,0.0372 -0.159808,0.0291 -0.25239,0.0794 l -0.03337,-0.143 q 0.08835,-0.0377 0.151439,-0.0502 0.05889,-0.0167 0.105178,-0.0418 0.0463,-0.0293 0.08844,-0.0839 0.04215,-0.0588 0.08861,-0.1722 0.03799,-0.084 0.101342,-0.23945 0.06755,-0.15542 0.152008,-0.35706 z m 0.827269,-1.76417 q -0.03388,0.13447 -0.08466,0.31095 -0.05078,0.17647 -0.105804,0.37816 -0.05502,0.19749 -0.114274,0.41179 -0.05505,0.2143 -0.105881,0.42021 0.197644,-0.0291 0.37004,-0.0456 0.176601,-0.0165 0.306941,-0.0247 -0.09585,-0.45421 -0.166646,-0.81589 -0.0708,-0.36168 -0.09972,-0.635 z m 6.160766,3.53443 q 0.0082,0.0925 -0.0298,0.20174 -0.03384,0.11345 -0.118103,0.20999 -0.08006,0.10074 -0.210506,0.16356 -0.13045,0.067 -0.311223,0.0667 -0.176562,-0.005 -0.34452,-0.11415 -0.163762,-0.10541 -0.276919,-0.2948 -0.108953,-0.18938 -0.146306,-0.4501 -0.03735,-0.26072 0.03469,-0.57169 0.04663,-0.20591 0.114406,-0.48325 0.07199,-0.28154 0.135607,-0.57991 0.06782,-0.29836 0.110397,-0.58836 0.04678,-0.28999 0.04301,-0.52122 -0.0038,-0.23543 -0.07076,-0.3827 -0.06278,-0.15146 -0.218305,-0.16436 -0.126105,-0.009 -0.231362,0.0752 -0.101045,0.0797 -0.176952,0.20567 -0.07591,0.12598 -0.126628,0.27303 -0.04651,0.14285 -0.06354,0.25633 -0.03827,0.23115 -0.05987,0.54641 -0.0216,0.31106 -0.01796,0.61796 -1.88e-4,0.1009 0.03333,0.16402 0.03352,0.0589 0.0797,0.0926 0.04618,0.0337 0.0966,0.0506 0.05043,0.0127 0.08825,0.017 L 91.2308,135.9 q -0.252305,0.0332 -0.42474,0.0707 -0.168224,0.0333 -0.277591,0.0667 -0.126191,0.0376 -0.20613,0.0711 l -0.03767,-0.0883 q 0.09257,-0.0461 0.15576,-0.11322 0.06739,-0.0671 0.105405,-0.16376 0.03802,-0.10083 0.05509,-0.23533 0.01707,-0.1345 0.0216,-0.31526 0.0044,-0.12191 0.0089,-0.28586 0.0045,-0.16815 6.41e-4,-0.34473 3.28e-4,-0.17657 -0.01196,-0.34896 -0.01229,-0.17239 -0.04567,-0.30698 -0.03338,-0.13459 -0.09209,-0.21458 -0.0587,-0.0842 -0.151189,-0.0844 -0.0967,0.004 -0.172506,0.0754 -0.0716,0.0713 -0.130668,0.18473 -0.05907,0.1134 -0.101365,0.25206 -0.04229,0.13445 -0.07196,0.26472 -0.02547,0.13027 -0.04248,0.23955 -0.0128,0.10507 -0.01711,0.15972 -0.0043,0.0546 -0.0087,0.16814 -0.0044,0.1093 -0.0047,0.25224 0.0039,0.13874 0.02047,0.29852 0.02073,0.15559 0.05829,0.3028 0.04178,0.14302 0.113017,0.26507 0.07125,0.11784 0.180437,0.18111 l -0.0044,0.10929 q -0.08403,-0.0254 -0.226947,-0.0383 -0.138718,-0.009 -0.294282,-5.5e-4 -0.151361,0.008 -0.298549,0.0331 -0.142991,0.0292 -0.235574,0.0794 l -0.05025,-0.1094 q 0.100998,-0.0545 0.168333,-0.0922 0.07155,-0.0419 0.117931,-0.11749 0.05059,-0.0756 0.07606,-0.21006 0.02548,-0.13869 0.03433,-0.3783 0.0089,-0.24382 0.01759,-0.41617 0.0087,-0.17235 0.009,-0.31108 0.0045,-0.13873 0.0047,-0.26065 0.0044,-0.1219 5e-4,-0.26905 -0.0039,-0.14295 -0.02887,-0.29854 -0.02073,-0.15559 -0.07933,-0.29443 -0.05859,-0.14305 -0.167692,-0.25256 -0.109102,-0.10951 -0.285562,-0.16869 l -0.01666,-0.0841 q 0.100881,0.009 0.239599,0.0173 0.134513,0.009 0.264838,0.009 0.134529,2.5e-4 0.235441,-0.008 0.105124,-0.0124 0.138819,-0.046 0.01676,0.0295 0.02501,0.11356 0.01246,0.0799 0.01646,0.18921 0.004,0.10511 0.0038,0.22703 -2.26e-4,0.12191 -4.37e-4,0.23542 0.05918,-0.17226 0.135076,-0.29403 0.08011,-0.12597 0.164332,-0.20149 0.08423,-0.0797 0.164175,-0.11741 0.08415,-0.0377 0.15562,-0.0375 0.168161,3.2e-4 0.302424,0.1435 0.134263,0.14319 0.188424,0.40815 0.135169,-0.34448 0.358334,-0.53325 0.227377,-0.19297 0.52158,-0.15038 0.344637,0.0511 0.46589,0.40866 0.125457,0.35757 0.0065,1.0342 -0.05948,0.33622 -0.165214,0.67655 -0.101529,0.34034 -0.198807,0.65546 -0.09307,0.31093 -0.15243,0.58408 -0.05517,0.27736 -0.02191,0.47922 0.02908,0.18503 0.104539,0.30288 0.07545,0.11786 0.163621,0.18108 0.08816,0.0674 0.176405,0.0886 0.09244,0.0254 0.159714,0.0213 0.0925,-0.004 0.168263,-0.0543 0.07997,-0.0503 0.138967,-0.12586 0.059,-0.0756 0.08859,-0.1638 0.0338,-0.0882 0.03395,-0.16809 1.01e-4,-0.0547 -0.02502,-0.10936 -0.02092,-0.0547 -0.06288,-0.0968 -0.04196,-0.0421 -0.104976,-0.0675 -0.05881,-0.0253 -0.130286,-0.0213 -0.07148,0.004 -0.126183,0.0334 -0.0505,0.0293 -0.08421,0.0713 -0.03372,0.0462 -0.05063,0.0966 -0.0127,0.0504 -0.0086,0.0883 0.0083,0.0841 0.0586,0.13884 0.05035,0.0548 0.121831,0.0465 0.03364,-0.004 0.05469,-0.0209 0.02526,-0.0168 0.04631,-0.0378 -0.04201,-0.0169 -0.07138,-0.0464 -0.02518,-0.0253 -0.01665,-0.0883 0.0043,-0.0378 0.02954,-0.063 0.02947,-0.021 0.06311,-0.0251 0.03784,-0.004 0.06724,0.0127 0.0294,0.0169 0.03772,0.0631 0.0041,0.0463 -0.0044,0.10089 -0.0085,0.0588 -0.03803,0.10503 -0.02952,0.0504 -0.08423,0.0797 -0.05472,0.0335 -0.142999,0.0334 -0.08828,-1.7e-4 -0.142851,-0.0465 -0.05036,-0.0463 -0.07546,-0.11365 -0.0251,-0.0673 -0.02916,-0.14299 1.33e-4,-0.0715 0.01704,-0.12189 0.03384,-0.10924 0.139115,-0.20574 0.105273,-0.0923 0.294439,-0.0835 0.08827,0.009 0.159667,0.0465 0.0714,0.038 0.121737,0.0969 0.05033,0.0632 0.07963,0.13467 0.02929,0.0715 0.03758,0.13881 z m 1.70438,-0.93854 q -0.01271,0.0546 -0.04227,0.12184 -0.02954,0.063 -0.08429,0.11336 -0.05475,0.0545 -0.134677,0.0796 -0.07573,0.0293 -0.180781,0.004 -0.105054,-0.0254 -0.167943,-0.11802 -0.05868,-0.0926 -0.08364,-0.23558 -0.03795,0.0588 -0.09693,0.12594 -0.05477,0.063 -0.13474,0.11326 -0.07577,0.0545 -0.176725,0.0838 -0.09676,0.0334 -0.214452,0.0248 -0.15973,-0.0129 -0.28571,-0.0888 -0.121784,-0.0717 -0.205654,-0.18536 -0.08386,-0.11787 -0.125629,-0.26509 -0.03756,-0.14721 -0.02045,-0.30693 0.01711,-0.15972 0.08459,-0.27311 0.07168,-0.11337 0.176905,-0.18044 0.105233,-0.0713 0.239809,-0.0962 0.134576,-0.025 0.277489,-0.0121 0.189143,0.0214 0.315092,0.1141 0.125956,0.0885 0.193018,0.19794 0.02138,-0.19334 0.01337,-0.41197 -0.008,-0.22283 -0.06651,-0.40371 -0.05851,-0.18509 -0.180211,-0.30303 -0.121691,-0.12214 -0.3319,-0.11832 -0.147141,-2.8e-4 -0.243935,0.0542 -0.09258,0.0503 -0.151572,0.12164 -0.05478,0.0714 -0.07595,0.147 -0.02115,0.0714 -0.02123,0.11347 -7.8e-5,0.042 0.02504,0.0967 0.02513,0.0505 0.07129,0.0968 0.04617,0.0421 0.10918,0.0675 0.06301,0.0253 0.142913,0.0129 0.05467,-0.008 0.09676,-0.0377 0.0421,-0.0293 0.06739,-0.0671 0.02529,-0.0378 0.03378,-0.0798 0.01268,-0.042 0.01275,-0.0798 7.8e-5,-0.042 -0.02509,-0.0715 -0.02516,-0.0337 -0.05876,-0.0506 -0.0336,-0.0169 -0.07566,-0.009 -0.04205,0.004 -0.07574,0.0377 0.03784,-0.004 0.07564,0.017 0.03781,0.0169 0.03769,0.0757 -8.6e-5,0.0462 -0.03797,0.0714 -0.03788,0.0209 -0.08411,0.0167 -0.04624,-0.004 -0.08401,-0.038 -0.03777,-0.0379 -0.03762,-0.11358 1.32e-4,-0.0715 0.05908,-0.12181 0.06315,-0.0503 0.14303,-0.0502 0.09669,1.8e-4 0.176429,0.076 0.08394,0.0758 0.08369,0.21036 -8.6e-5,0.0462 -0.02541,0.10085 -0.02111,0.0504 -0.06744,0.0966 -0.04633,0.0461 -0.122065,0.0796 -0.07573,0.0293 -0.176624,0.0291 -0.100896,-1.9e-4 -0.180703,-0.0382 -0.0798,-0.0422 -0.134341,-0.10114 -0.05454,-0.0632 -0.08383,-0.13469 -0.02508,-0.0757 -0.02496,-0.14298 1.25e-4,-0.0673 0.04235,-0.16808 0.04224,-0.10503 0.130692,-0.19735 0.09266,-0.0923 0.227314,-0.15933 0.138858,-0.067 0.328039,-0.0667 0.508688,9.5e-4 0.701409,0.35865 0.19273,0.3535 0.0611,1.05533 -0.05097,0.28157 -0.0555,0.45813 -0.0045,0.17657 0.0205,0.28171 0.02503,0.10515 0.0712,0.14728 0.05037,0.0421 0.105007,0.0506 0.04623,0.008 0.0883,-0.008 0.03365,-0.008 0.06313,-0.0377 0.03369,-0.0336 0.04643,-0.10081 z m -0.710082,-0.21572 q -0.0039,-0.15135 0.0132,-0.31948 -0.03339,-0.13039 -0.138288,-0.23989 -0.100685,-0.1137 -0.230971,-0.13496 -0.09666,-0.017 -0.201801,0.004 -0.100928,0.0166 -0.180914,0.0753 -0.07998,0.0545 -0.12641,0.15532 -0.04643,0.10081 -0.03409,0.24797 0.0206,0.22706 0.125481,0.34496 0.109086,0.11792 0.319311,0.1057 0.159768,-0.008 0.269206,-0.0794 0.113649,-0.0755 0.185274,-0.15941 z m 1.710609,0.2344 q 0.09669,1.8e-4 0.180899,-0.0669 0.08421,-0.0671 0.118134,-0.2268 l 0.08822,0.0338 q -0.01279,0.10087 -0.08026,0.20585 -0.06745,0.10077 -0.172685,0.17204 -0.105234,0.0713 -0.239802,0.092 -0.130364,0.0208 -0.268979,-0.0425 -0.151213,-0.0717 -0.218266,-0.18538 -0.06705,-0.11363 -0.0836,-0.2608 -0.01654,-0.15138 -0.0036,-0.32372 0.01293,-0.17655 0.01328,-0.36573 2.03e-4,-0.1093 -0.0037,-0.25645 2.81e-4,-0.15135 -0.0078,-0.31952 -0.0039,-0.16817 -0.01618,-0.34477 -0.01227,-0.18079 -0.02457,-0.35318 -0.142968,0.0165 -0.27334,0.0415 -0.12616,0.0208 -0.214507,0.0543 -0.0041,-0.0379 1.1e-4,-0.0589 3.9e-5,-0.021 0.0043,-0.0378 3.9e-5,-0.021 7.8e-5,-0.042 4.7e-5,-0.0252 -0.0083,-0.0673 0.100912,-0.008 0.222845,-0.0164 0.126136,-0.008 0.256477,-0.0163 -0.0041,-0.0589 -0.0082,-0.11353 -0.0041,-0.0589 -0.01239,-0.11353 -0.02065,-0.19763 -0.07929,-0.31545 -0.05443,-0.11781 -0.121581,-0.181 -0.06715,-0.0632 -0.125965,-0.0843 -0.05881,-0.0253 -0.08822,-0.0338 l 0.01275,-0.0798 q 0.07981,0.0338 0.197503,0.0466 0.117697,0.009 0.243834,4.5e-4 0.130348,-0.0124 0.25232,-0.0416 0.126175,-0.0292 0.21875,-0.0753 -0.04226,0.11764 -0.07637,0.37402 -0.0299,0.25639 -0.05156,0.59688 0.218633,-0.0122 0.315365,-0.0331 -0.02107,0.0252 -0.02118,0.084 -1.01e-4,0.0547 0.01242,0.10092 -0.07145,-0.009 -0.151329,-0.009 -0.07987,-0.004 -0.163949,-0.005 -0.01306,0.24381 -0.01776,0.50866 -0.0047,0.26485 0.0032,0.52551 0.01213,0.25647 0.0327,0.50455 0.02477,0.24388 0.06222,0.44995 0.03336,0.1472 0.117323,0.21042 0.08396,0.0632 0.180648,0.0676 z m 0.839155,-1.37316 q 0.05911,-0.13863 0.143437,-0.2688 0.08853,-0.13436 0.198026,-0.23506 0.113697,-0.10068 0.244115,-0.15089 0.130426,-0.0544 0.277513,-0.0247 0.168106,0.0297 0.264549,0.16445 0.100655,0.13051 0.146571,0.30717 0.05012,0.17666 0.05816,0.37427 0.008,0.1934 0.0036,0.34894 -0.0087,0.15974 -0.02157,0.29424 -0.0087,0.13452 -0.0257,0.2564 -0.01283,0.12189 -0.02988,0.24378 -0.01704,0.12189 -0.0341,0.25218 -0.02136,0.18073 0.02893,0.26911 0.05448,0.0926 0.13013,0.10534 0.07565,0.0128 0.147227,-0.046 0.07578,-0.0587 0.101217,-0.17217 l 0.06721,0.0296 q -0.0085,0.0757 -0.04231,0.14706 -0.02956,0.0714 -0.0885,0.11755 -0.05475,0.0504 -0.134654,0.067 -0.07991,0.0167 -0.18075,-0.013 -0.09664,-0.0296 -0.163801,-0.0844 -0.06296,-0.0548 -0.0964,-0.15573 -0.03345,-0.10096 -0.04156,-0.26073 -0.0039,-0.15976 0.01756,-0.39935 0.01711,-0.15972 0.03005,-0.33627 0.01715,-0.18074 0.02168,-0.3531 0.0045,-0.17656 -0.01198,-0.33634 -0.01231,-0.15978 -0.06255,-0.27758 -0.04602,-0.12201 -0.13417,-0.19364 -0.08395,-0.0716 -0.22268,-0.0719 -0.113509,-2.1e-4 -0.218782,0.0921 -0.101068,0.0923 -0.177022,0.24351 -0.07595,0.1512 -0.122565,0.3487 -0.04241,0.19752 -0.0428,0.40772 l 8e-6,-0.004 q -3.9e-5,0.021 -6.3e-5,0.0336 0.0042,0.0126 0.0041,0.0294 0.02062,0.21444 0.04982,0.34062 0.0334,0.12618 0.08371,0.20195 0.05031,0.0758 0.121691,0.12214 0.07559,0.0464 0.176382,0.10123 l -0.02116,0.0756 q -0.07983,-0.0254 -0.226908,-0.0593 -0.142875,-0.0339 -0.306793,-0.0552 -0.16391,-0.0255 -0.319451,-0.03 -0.155542,-0.004 -0.256508,0.0332 l -0.03345,-0.10096 q 0.05469,-0.0209 0.117791,-0.0418 0.0673,-0.0209 0.126284,-0.0881 0.05898,-0.0671 0.101272,-0.2016 0.0423,-0.13866 0.05539,-0.39508 0.01307,-0.25222 0.01782,-0.54229 0.0089,-0.29006 0.0053,-0.57174 -0.0037,-0.28168 -0.02003,-0.53395 -0.01213,-0.25647 -0.04122,-0.4415 -0.02496,-0.14298 -0.07106,-0.21874 -0.0461,-0.08 -0.104882,-0.11791 -0.05457,-0.0421 -0.109203,-0.0549 -0.05883,-0.0127 -0.10085,-0.0254 l -0.0041,-0.0673 q 0.256407,0.0215 0.521292,0.005 0.269096,-0.0205 0.517337,-0.12937 l 0.0083,0.0715 q -0.04633,0.0462 -0.09264,0.0839 -0.04211,0.0378 -0.08006,0.10075 -0.03795,0.063 -0.06757,0.16383 -0.02541,0.10085 -0.03834,0.26899 -0.0086,0.10929 -0.01731,0.26482 -0.0045,0.15555 -0.01323,0.3363 -0.0045,0.17656 -0.0091,0.37415 -3.59e-4,0.19338 -7.11e-4,0.38256 z m 1.68512,0.37728 q 0.01307,-0.24801 0.10596,-0.46224 0.09709,-0.21423 0.248717,-0.36529 0.151634,-0.15527 0.340963,-0.2348 0.193534,-0.0795 0.399485,-0.0539 0.20595,0.0256 0.315067,0.12671 0.113322,0.10111 0.159332,0.22731 0.04602,0.12201 0.04999,0.24393 0.004,0.12193 -3.51e-4,0.18918 -0.0043,0.0631 -0.01707,0.1387 -0.0085,0.0757 -0.0213,0.15131 -0.0085,0.0714 -0.0087,0.13872 -1.17e-4,0.0631 0.01241,0.10512 -0.105038,-0.0338 -0.243701,-0.0719 -0.138654,-0.0423 -0.302572,-0.0636 -0.159714,-0.0213 -0.336299,-0.0132 -0.172373,0.004 -0.34484,0.0582 -0.0045,0.15975 0.02043,0.31955 0.02914,0.1556 0.09193,0.29866 0.05443,0.12202 0.125723,0.21464 0.0713,0.0926 0.151079,0.14321 0.084,0.0464 0.168068,0.0508 0.08828,0.004 0.176663,-0.0501 0.07156,-0.0503 0.109531,-0.12171 0.03374,-0.0588 0.02549,-0.14289 -0.004,-0.0841 -0.08792,-0.19355 l 0.52555,-0.0242 q -0.02958,0.084 -0.08867,0.21004 -0.05489,0.12602 -0.151798,0.24355 -0.09691,0.11754 -0.239996,0.19715 -0.143085,0.0796 -0.344863,0.0708 -0.20177,-0.013 -0.365509,-0.13101 -0.159542,-0.1138 -0.268503,-0.29898 -0.108961,-0.18518 -0.163184,-0.41651 -0.05421,-0.23552 -0.04114,-0.48354 z m 1.044473,-1.00703 q -0.117689,-0.0128 -0.231331,0.0584 -0.109437,0.0713 -0.202176,0.20562 -0.08853,0.13017 -0.151922,0.31082 -0.0634,0.18066 -0.08899,0.3782 0.239685,-0.029 0.445682,-0.0286 0.206005,-0.004 0.38252,0.0259 0.04642,-0.0966 0.08454,-0.24788 0.03813,-0.15548 0.03419,-0.30263 -0.0039,-0.15135 -0.06677,-0.26497 -0.05865,-0.11362 -0.205748,-0.13492 z m 1.807921,2.16844 q -0.0925,-0.0128 -0.20596,-0.0256 -0.11348,-0.0128 -0.23119,-0.0172 -0.11349,-0.009 -0.21861,-4e-4 -0.1009,0.004 -0.16821,0.0291 l -0.0335,-0.0715 q 0.0589,-0.0251 0.0968,-0.0461 0.0421,-0.0209 0.0632,-0.0503 0.0253,-0.0336 0.038,-0.0882 0.0127,-0.0588 0.0213,-0.15971 0.004,-0.0673 0.009,-0.18917 0.004,-0.12611 0.009,-0.27325 0.004,-0.15133 0.005,-0.31529 3e-4,-0.16396 -0.004,-0.31531 -0.004,-0.15556 -0.0121,-0.2859 -0.008,-0.13034 -0.0206,-0.21024 -0.0125,-0.0841 -0.0418,-0.1262 -0.0293,-0.0463 -0.0756,-0.0674 -0.042,-0.0211 -0.10085,-0.0254 -0.0547,-0.004 -0.121912,-0.004 l 1.4e-4,-0.0757 q 0.264812,0.0215 0.479222,0.0219 0.2144,4e-4 0.349,-0.0372 l 0.004,0.0547 q -0.0252,0.008 -0.0463,0.042 -0.0211,0.0294 -0.0422,0.0966 -0.0169,0.0672 -0.034,0.17651 -0.0128,0.10928 -0.0173,0.27743 0.0506,-0.1008 0.11808,-0.20157 0.0675,-0.10077 0.14747,-0.1763 0.0842,-0.0755 0.18099,-0.11737 0.10099,-0.0461 0.21448,-0.0374 0.18074,0.0172 0.26881,0.13503 0.0923,0.11788 0.1256,0.2777 0.12658,-0.2436 0.32022,-0.38198 0.19785,-0.13836 0.44583,-0.10847 0.1471,0.0213 0.2604,0.13501 0.11331,0.10952 0.18447,0.2736 0.0754,0.1641 0.096,0.36173 0.0249,0.19764 -0.005,0.38256 -0.034,0.18491 -0.12688,0.40756 -0.0887,0.22265 -0.19,0.44527 -0.0971,0.22264 -0.17315,0.42008 -0.076,0.19745 -0.0763,0.32357 -3.6e-4,0.19339 0.092,0.28185 0.0965,0.0927 0.23105,0.0929 0.0673,1.3e-4 0.13457,-0.0208 0.0715,-0.0209 0.12625,-0.067 0.0589,-0.0419 0.0927,-0.10913 0.038,-0.063 0.0381,-0.15127 2.3e-4,-0.12192 -0.0879,-0.17674 -0.0882,-0.0548 -0.17647,-0.055 -0.0883,-1.6e-4 -0.15144,0.0502 -0.0632,0.0545 -0.0633,0.13441 -4e-5,0.021 0.004,0.0463 0.008,0.0294 0.0209,0.0547 0.0168,0.0253 0.0462,0.0421 0.0294,0.0211 0.0756,0.0212 0.0378,7e-5 0.0631,-0.0125 0.0252,-0.0126 0.0463,-0.0335 -0.0588,-0.0211 -0.0924,-0.0632 -0.0293,-0.0421 0.004,-0.0967 0.0169,-0.0252 0.0505,-0.0335 0.0336,-0.004 0.0673,0.009 0.0378,0.0169 0.0588,0.0506 0.0252,0.0337 0.0251,0.0841 -1.6e-4,0.0841 -0.0675,0.1344 -0.0674,0.0545 -0.15145,0.0586 -0.0883,0.004 -0.15965,-0.0549 -0.0714,-0.0548 -0.0711,-0.1767 2.3e-4,-0.12612 0.0803,-0.21006 0.0842,-0.0839 0.21877,-0.0837 0.15975,3e-4 0.25207,0.093 0.0965,0.0969 0.0962,0.2356 -1.3e-4,0.0715 -0.0255,0.1555 -0.0254,0.0882 -0.0886,0.1638 -0.059,0.0756 -0.16419,0.12581 -0.101,0.0545 -0.26075,0.0542 -0.1009,-1.9e-4 -0.19332,-0.0382 -0.0882,-0.038 -0.15954,-0.11381 -0.0671,-0.0758 -0.10896,-0.18518 -0.0376,-0.10517 -0.0416,-0.24391 2.8e-4,-0.15135 0.0595,-0.34042 0.0634,-0.18486 0.14789,-0.40331 0.13098,-0.3529 0.18201,-0.6639 0.051,-0.31101 0.0262,-0.54227 -0.0248,-0.23127 -0.12124,-0.36598 -0.0922,-0.1347 -0.25199,-0.135 -0.1051,-1.9e-4 -0.18514,0.0879 -0.0758,0.0882 -0.12654,0.22679 -0.0507,0.13863 -0.0805,0.31095 -0.0297,0.17231 -0.0469,0.34464 -0.0171,0.16813 -0.0216,0.31526 -0.004,0.14293 -0.005,0.23122 -2e-4,0.1051 0.0249,0.1682 0.0293,0.0589 0.0671,0.0926 0.042,0.0337 0.084,0.0506 0.0462,0.0127 0.084,0.0254 l -0.0254,0.0672 q -0.0462,-0.008 -0.15552,-0.0171 -0.10928,-0.0128 -0.23119,-0.013 -0.12191,-0.004 -0.23544,0.008 -0.10933,0.0124 -0.16406,0.0502 l -0.0167,-0.0883 q 0.0379,-0.0125 0.0757,-0.0209 0.0379,-0.0125 0.0674,-0.0461 0.0337,-0.0336 0.0507,-0.10501 0.0212,-0.0756 0.0298,-0.21435 0.0131,-0.28164 0.0388,-0.53384 0.0299,-0.25219 0.0429,-0.44134 0.004,-0.0967 -0.004,-0.18078 -0.008,-0.0883 -0.0375,-0.15142 -0.0293,-0.0673 -0.0839,-0.10105 -0.0546,-0.0379 -0.13866,-0.0381 -0.0883,0.004 -0.19353,0.0753 -0.10523,0.0713 -0.19376,0.20143 -0.0885,0.13016 -0.15193,0.31502 -0.0592,0.18067 -0.0596,0.39928 l -0.004,-0.004 q 0.008,0.14716 0.0121,0.2901 0.004,0.13874 0.0122,0.23965 0.008,0.10512 0.0165,0.17661 0.008,0.0673 0.0334,0.11357 0.0293,0.0463 0.0839,0.0758 0.0546,0.0253 0.15127,0.0423 l -0.009,0.0841 z m 4.34308,-0.1643 q -0.0127,0.0546 -0.0423,0.12184 -0.0296,0.063 -0.0843,0.11336 -0.0548,0.0546 -0.13468,0.0796 -0.0757,0.0293 -0.18078,0.004 -0.10505,-0.0254 -0.16794,-0.11802 -0.0587,-0.0926 -0.0836,-0.23558 -0.0379,0.0588 -0.0969,0.12594 -0.0548,0.063 -0.13474,0.11326 -0.0758,0.0545 -0.17673,0.0837 -0.0968,0.0335 -0.21445,0.0248 -0.15973,-0.0129 -0.28571,-0.0888 -0.12178,-0.0717 -0.20565,-0.18536 -0.0839,-0.11787 -0.12563,-0.26509 -0.0376,-0.14721 -0.0204,-0.30693 0.0171,-0.15972 0.0846,-0.27311 0.0717,-0.11337 0.17691,-0.18044 0.10523,-0.0713 0.23981,-0.0963 0.13457,-0.025 0.27749,-0.0121 0.18914,0.0214 0.31509,0.1141 0.12596,0.0885 0.19302,0.19794 0.0214,-0.19334 0.0134,-0.41197 -0.008,-0.22283 -0.0665,-0.40371 -0.0585,-0.18509 -0.18021,-0.30302 -0.12169,-0.12215 -0.3319,-0.11833 -0.14714,-2.8e-4 -0.24393,0.0542 -0.0926,0.0503 -0.15157,0.12163 -0.0548,0.0714 -0.076,0.147 -0.0211,0.0714 -0.0212,0.11347 -8e-5,0.042 0.025,0.0967 0.0251,0.0505 0.0713,0.0968 0.0462,0.0421 0.10918,0.0675 0.063,0.0253 0.14292,0.0129 0.0547,-0.008 0.0968,-0.0376 0.0421,-0.0294 0.0674,-0.0671 0.0253,-0.0378 0.0338,-0.0798 0.0127,-0.042 0.0127,-0.0798 8e-5,-0.042 -0.0251,-0.0715 -0.0252,-0.0337 -0.0588,-0.0506 -0.0336,-0.0169 -0.0757,-0.009 -0.0421,0.004 -0.0757,0.0377 0.0378,-0.004 0.0756,0.017 0.0378,0.0169 0.0377,0.0757 -9e-5,0.0463 -0.038,0.0714 -0.0379,0.0209 -0.0841,0.0167 -0.0462,-0.004 -0.084,-0.038 -0.0378,-0.0379 -0.0376,-0.11358 1.3e-4,-0.0715 0.0591,-0.12181 0.0632,-0.0503 0.14303,-0.0502 0.0967,1.8e-4 0.17643,0.076 0.0839,0.0758 0.0837,0.21036 -8e-5,0.0462 -0.0254,0.10085 -0.0211,0.0504 -0.0674,0.0966 -0.0463,0.0462 -0.12207,0.0797 -0.0757,0.0293 -0.17662,0.0291 -0.1009,-1.9e-4 -0.18071,-0.0382 -0.0798,-0.0422 -0.13434,-0.10114 -0.0545,-0.0632 -0.0838,-0.13469 -0.0251,-0.0757 -0.025,-0.14298 1.3e-4,-0.0673 0.0424,-0.16808 0.0422,-0.10503 0.13069,-0.19735 0.0927,-0.0923 0.22731,-0.15933 0.13886,-0.067 0.32804,-0.0667 0.50869,9.5e-4 0.70141,0.35865 0.19273,0.3535 0.0611,1.05533 -0.051,0.28157 -0.0555,0.45813 -0.005,0.17657 0.0205,0.28171 0.025,0.10515 0.0712,0.14728 0.0504,0.0421 0.10501,0.0506 0.0462,0.008 0.0883,-0.008 0.0336,-0.008 0.0631,-0.0377 0.0337,-0.0336 0.0464,-0.10081 z m -0.71009,-0.21572 q -0.004,-0.15135 0.0132,-0.31948 -0.0334,-0.13039 -0.13829,-0.23989 -0.10068,-0.1137 -0.23097,-0.13496 -0.0967,-0.017 -0.2018,0.004 -0.10093,0.0166 -0.18091,0.0753 -0.08,0.0545 -0.12641,0.15532 -0.0464,0.10081 -0.0341,0.24797 0.0206,0.22706 0.12548,0.34497 0.10908,0.11791 0.31931,0.10569 0.15977,-0.008 0.2692,-0.0794 0.11365,-0.0755 0.18528,-0.15941 z m 2.46905,1.5769 q -0.0675,0.11338 -0.16014,0.2099 -0.0927,0.10073 -0.20631,0.16778 -0.11364,0.0713 -0.23983,0.10466 -0.12618,0.0334 -0.26069,0.0247 -0.15132,-0.0129 -0.26471,-0.0804 -0.11338,-0.0675 -0.18887,-0.16851 -0.0755,-0.0968 -0.10891,-0.21041 -0.0292,-0.10936 -0.0164,-0.20603 0.0128,-0.10087 0.0634,-0.19747 0.0548,-0.0966 0.13906,-0.17211 0.0842,-0.0755 0.20202,-0.12154 0.11779,-0.046 0.26493,-0.0416 0.0673,0.004 0.13446,0.0339 0.0672,0.0296 0.11757,0.0801 0.0546,0.0506 0.0797,0.11786 0.0293,0.0715 0.0249,0.14719 -0.009,0.0757 -0.0465,0.15126 -0.0338,0.0756 -0.0927,0.13435 -0.0548,0.063 -0.13049,0.0922 -0.0757,0.0335 -0.1598,0.0207 -0.0925,-0.0128 -0.13855,-0.0969 -0.0461,-0.08 -0.0417,-0.17244 0.009,-0.0925 0.0676,-0.17224 0.0632,-0.0755 0.18513,-0.0837 0.0841,-0.004 0.12181,0.0591 0.0419,0.0673 0.008,0.12193 -0.0379,0.0588 -0.1052,0.0502 -0.0673,-0.004 -0.0965,-0.0885 -0.0337,0.0252 -0.0548,0.0714 -0.0169,0.0504 -0.0128,0.0967 0.004,0.0505 0.0335,0.0841 0.0294,0.0379 0.0924,0.038 0.0757,1.4e-4 0.12618,-0.0334 0.0547,-0.0293 0.0884,-0.0797 0.0337,-0.0462 0.0464,-0.10082 0.0169,-0.0504 0.017,-0.0925 8e-5,-0.042 -0.0166,-0.0925 -0.0167,-0.0463 -0.0545,-0.0884 -0.0378,-0.0379 -0.10078,-0.0633 -0.063,-0.0211 -0.15552,-0.0171 -0.0841,0.004 -0.16823,0.0375 -0.0799,0.0335 -0.14731,0.0922 -0.0674,0.0587 -0.10957,0.14273 -0.0422,0.084 -0.0424,0.1849 -2e-4,0.1051 0.0417,0.18926 0.0461,0.0842 0.12165,0.13896 0.0756,0.059 0.17221,0.0886 0.0966,0.0338 0.20173,0.0298 0.10091,-0.004 0.22716,-0.0752 0.12625,-0.067 0.22741,-0.20978 0.10115,-0.13855 0.15202,-0.36127 0.0551,-0.21851 0.009,-0.52969 -0.0207,-0.14718 -0.0331,-0.28173 -0.008,-0.13455 -0.008,-0.26067 -0.0548,0.0798 -0.13064,0.16792 -0.0716,0.0839 -0.16424,0.15104 -0.0884,0.0713 -0.1978,0.11314 -0.10939,0.046 -0.2355,0.0374 -0.15133,-0.009 -0.29835,-0.072 -0.14282,-0.0633 -0.25605,-0.21068 -0.10904,-0.14314 -0.17167,-0.37868 -0.0584,-0.23554 -0.0367,-0.58864 0.0175,-0.3531 0.12719,-0.57571 0.10972,-0.22261 0.25709,-0.34426 0.14736,-0.12164 0.30719,-0.15918 0.16403,-0.0417 0.28593,-0.0289 0.18073,0.0214 0.35286,0.1478 0.17634,0.12645 0.27254,0.38728 0.0339,-0.15969 0.0636,-0.26474 0.0338,-0.10504 0.0297,-0.1639 0.13446,0.0381 0.2942,0.0426 0.15975,0.004 0.32793,-0.008 l -0.004,0.0799 q -0.18921,0.0165 -0.29879,0.1592 -0.10535,0.13854 -0.16478,0.44533 -0.0382,0.19331 -0.0469,0.37407 -0.009,0.18076 -0.005,0.35313 0.004,0.16817 0.0162,0.33215 0.0165,0.15978 0.0288,0.31956 0.008,0.0967 0.0122,0.22704 0.004,0.13033 -0.009,0.27325 -0.0129,0.14291 -0.051,0.28998 -0.0339,0.15128 -0.10982,0.28147 z m -0.16839,-2.14017 q 0.004,-0.13452 0.0257,-0.26481 -0.029,-0.22287 -0.13385,-0.366 -0.10063,-0.14733 -0.32339,-0.17297 -0.1303,-0.017 -0.25651,0.0332 -0.12621,0.046 -0.23152,0.15932 -0.1011,0.10912 -0.1729,0.28556 -0.0718,0.17223 -0.0891,0.41183 -0.0215,0.23959 0.016,0.42884 0.0417,0.18506 0.12134,0.31132 0.0839,0.12208 0.19306,0.17693 0.1092,0.0591 0.22693,0.0467 0.10513,-0.0166 0.20616,-0.0837 0.10102,-0.0671 0.18107,-0.15942 0.0843,-0.0965 0.13911,-0.20574 0.0591,-0.1134 0.0803,-0.22266 0.004,-0.0925 0.009,-0.18076 0.004,-0.0925 0.009,-0.19757 z m 0.75082,0.91787 q 0.0968,-0.0335 0.15992,-0.088 0.0632,-0.0545 0.0969,-0.10913 0.0422,-0.063 0.0549,-0.13022 0.0933,-0.42864 0.094,-0.81541 7.3e-4,-0.39098 -0.0576,-0.66855 -0.0167,-0.0883 -0.0628,-0.16408 -0.0377,-0.0631 -0.10488,-0.1179 -0.0672,-0.059 -0.17223,-0.076 l -0.004,-0.0673 q 0.0841,0.009 0.15553,0.0129 0.0757,1.4e-4 0.13032,2.5e-4 l 0.11771,2.2e-4 q 0.0504,0.004 0.10089,0.004 0.0462,0.004 0.0925,0.004 0.0504,9e-5 0.0967,0.009 -0.0129,0.15132 -0.0216,0.31106 -0.009,0.15553 -0.0131,0.28164 -0.009,0.14713 -0.009,0.28586 -0.009,0.15553 -0.0132,0.3405 -0.005,0.18077 0.004,0.34474 0.008,0.16397 0.0289,0.29013 0.0208,0.12196 0.067,0.15988 0.0252,0.0169 0.0672,0.0338 0.0336,0.0169 0.0882,0.0338 0.0588,0.0169 0.14287,0.0339 l 0.004,0.0715 q -0.0841,-0.004 -0.16395,-3.1e-4 -0.0757,-1.4e-4 -0.13453,-2.5e-4 -0.0715,0.004 -0.13454,0.004 -0.0883,0.004 -0.18921,0.0165 -0.0841,0.008 -0.18922,0.0207 -0.10513,0.0124 -0.20185,0.029 z m 0.43769,-2.51741 q -0.13034,0.008 -0.20168,-0.0592 -0.0713,-0.0716 -0.0796,-0.1599 -0.008,-0.0883 0.0465,-0.16387 0.059,-0.0798 0.18515,-0.0964 0.13036,-0.0166 0.2059,0.055 0.0797,0.0716 0.0922,0.16413 0.0124,0.0883 -0.0466,0.17227 -0.059,0.0798 -0.20196,0.0879 z m 1.80278,0.40694 q -0.18077,-3.3e-4 -0.30705,0.0835 -0.12207,0.0796 -0.198,0.21824 -0.0759,0.1386 -0.10989,0.31931 -0.034,0.18071 -0.0259,0.37831 0.016,0.44146 0.17526,0.7024 0.15928,0.25675 0.42834,0.25725 0.15134,2.8e-4 0.26917,-0.0584 0.11782,-0.0586 0.19784,-0.13837 0.0842,-0.0839 0.13065,-0.17212 0.0464,-0.0924 0.0507,-0.15125 l 0.10089,1.9e-4 q -0.0213,0.13028 -0.093,0.26468 -0.0675,0.1302 -0.18542,0.23928 -0.11791,0.10489 -0.27778,0.16765 -0.15987,0.0628 -0.35743,0.0498 -0.25221,-0.0173 -0.43275,-0.14374 -0.17633,-0.13065 -0.28527,-0.32424 -0.10894,-0.19779 -0.14634,-0.43329 -0.0374,-0.2397 -0.008,-0.46666 0.0256,-0.22697 0.10586,-0.40759 0.0802,-0.18063 0.19815,-0.30653 0.11795,-0.1259 0.26522,-0.19289 0.15147,-0.067 0.31964,-0.0709 0.13034,-0.008 0.27317,0.0468 0.14285,0.0507 0.28145,0.12244 0.13439,0.0717 0.20593,0.034 0.0715,-0.0377 0.11819,-0.25623 l 0.0925,-0.004 -0.0229,1.00473 -0.10096,0.0334 q -0.0124,-0.0967 -0.0542,-0.23132 -0.0418,-0.13881 -0.12144,-0.26088 -0.0796,-0.12627 -0.20139,-0.21478 -0.12175,-0.0885 -0.28571,-0.0888 z m 3.06526,1.9858 q -0.0127,0.0546 -0.0423,0.12184 -0.0296,0.063 -0.0843,0.11335 -0.0547,0.0545 -0.13467,0.0796 -0.0757,0.0293 -0.18078,0.004 -0.10506,-0.0254 -0.16795,-0.11803 -0.0587,-0.0926 -0.0836,-0.23558 -0.038,0.0588 -0.0969,0.12594 -0.0548,0.063 -0.13474,0.11326 -0.0758,0.0545 -0.17672,0.0838 -0.0968,0.0335 -0.21445,0.0248 -0.15973,-0.0129 -0.28571,-0.0888 -0.12179,-0.0717 -0.20566,-0.18536 -0.0839,-0.11787 -0.12563,-0.26508 -0.0376,-0.14722 -0.0205,-0.30694 0.0171,-0.15972 0.0846,-0.2731 0.0717,-0.11338 0.17691,-0.18045 0.10523,-0.0713 0.23981,-0.0962 0.13457,-0.025 0.27748,-0.0121 0.18915,0.0214 0.3151,0.1141 0.12595,0.0885 0.19301,0.19795 0.0214,-0.19335 0.0134,-0.41197 -0.008,-0.22283 -0.0665,-0.40372 -0.0585,-0.18508 -0.18021,-0.30302 -0.12169,-0.12214 -0.3319,-0.11833 -0.14714,-2.7e-4 -0.24394,0.0542 -0.0926,0.0503 -0.15157,0.12163 -0.0548,0.0714 -0.0759,0.147 -0.0212,0.0714 -0.0212,0.11347 -8e-5,0.042 0.025,0.0967 0.0251,0.0505 0.0713,0.0968 0.0462,0.0421 0.10918,0.0675 0.063,0.0253 0.14291,0.0129 0.0547,-0.008 0.0968,-0.0377 0.0421,-0.0293 0.0674,-0.0671 0.0253,-0.0378 0.0338,-0.0798 0.0127,-0.042 0.0127,-0.0799 8e-5,-0.042 -0.0251,-0.0715 -0.0252,-0.0337 -0.0588,-0.0506 -0.0336,-0.0169 -0.0757,-0.009 -0.0421,0.004 -0.0757,0.0377 0.0378,-0.004 0.0756,0.017 0.0378,0.0169 0.0377,0.0757 -8e-5,0.0462 -0.038,0.0714 -0.0379,0.0209 -0.0841,0.0167 -0.0462,-0.004 -0.084,-0.038 -0.0378,-0.0379 -0.0376,-0.11358 1.3e-4,-0.0715 0.0591,-0.1218 0.0631,-0.0503 0.14303,-0.0502 0.0967,1.8e-4 0.17643,0.076 0.0839,0.0758 0.0837,0.21036 -9e-5,0.0462 -0.0254,0.10085 -0.0211,0.0504 -0.0675,0.0966 -0.0463,0.0462 -0.12206,0.0796 -0.0757,0.0293 -0.17663,0.0291 -0.10089,-1.9e-4 -0.1807,-0.0382 -0.0798,-0.0422 -0.13434,-0.10115 -0.0545,-0.0632 -0.0838,-0.13468 -0.0251,-0.0757 -0.025,-0.14299 1.3e-4,-0.0673 0.0423,-0.16808 0.0422,-0.10502 0.13069,-0.19735 0.0927,-0.0923 0.22732,-0.15933 0.13886,-0.067 0.32804,-0.0667 0.50869,9.4e-4 0.70141,0.35864 0.19273,0.3535 0.0611,1.05533 -0.051,0.28158 -0.0555,0.45814 -0.005,0.17656 0.0205,0.28171 0.025,0.10514 0.0712,0.14727 0.0504,0.0421 0.105,0.0506 0.0462,0.008 0.0883,-0.008 0.0336,-0.008 0.0631,-0.0377 0.0337,-0.0336 0.0464,-0.10081 z m -0.71008,-0.21573 q -0.004,-0.15135 0.0132,-0.31948 -0.0334,-0.13039 -0.13829,-0.23989 -0.10068,-0.11369 -0.23097,-0.13496 -0.0967,-0.017 -0.2018,0.004 -0.10093,0.0166 -0.18092,0.0753 -0.08,0.0545 -0.12641,0.15532 -0.0464,0.10081 -0.0341,0.24797 0.0206,0.22706 0.12548,0.34497 0.10909,0.11791 0.31931,0.10569 0.15977,-0.008 0.26921,-0.0794 0.11365,-0.0755 0.18527,-0.15941 z m 1.74839,0.2639 q -0.11768,-0.017 -0.21857,-0.0214 -0.10089,-0.004 -0.18076,-0.009 l -0.17236,-3.2e-4 q -0.0925,0.004 -0.18079,0.008 -0.0757,0.004 -0.15978,0.0123 -0.0799,0.004 -0.14296,0.0123 l -0.0251,-0.0547 q 0.0968,-0.0334 0.15991,-0.0838 0.0632,-0.0545 0.0969,-0.10913 0.0422,-0.063 0.0549,-0.13022 0.0297,-0.14288 0.0469,-0.34464 0.0214,-0.20596 0.026,-0.44138 0.009,-0.23961 0.005,-0.48766 -0.004,-0.25225 -0.0159,-0.4877 -0.0122,-0.23545 -0.037,-0.43308 -0.0207,-0.20184 -0.0498,-0.33642 -0.0251,-0.0841 -0.0712,-0.15989 -0.0377,-0.0631 -0.10488,-0.1179 -0.063,-0.059 -0.16382,-0.076 l -0.004,-0.0631 q 0.0799,0.009 0.15133,0.0129 0.0715,1.3e-4 0.12612,2.3e-4 l 0.11351,2.1e-4 q 0.0757,-0.004 0.14716,-0.0123 0.0589,-0.008 0.12615,-0.0166 0.0673,-0.008 0.11356,-0.025 -0.0221,0.5717 -0.0354,0.95425 -0.009,0.37834 -0.0179,0.60955 -0.009,0.26904 -0.0134,0.42458 -0.004,0.15555 -6.2e-4,0.33633 0.004,0.18078 0.0162,0.34896 0.0165,0.16399 0.0415,0.29436 0.025,0.13037 0.0627,0.1851 0.0209,0.0379 0.0671,0.0674 0.0336,0.0253 0.0924,0.0464 0.0588,0.0211 0.14288,0.0297 l 0.004,0.0673 z"
       id="text5"
       aria-label="A Mathemagical" /><path
       style="font-size:32px;font-family:'Mystery Quest';-inkscape-font-specification:'Mystery Quest, 400';baseline-shift:baseline;white-space:pre;fill:#f6f6f8;stroke-width:0.1;stroke-linecap:round;stroke-linejoin:round"
       d="m 89.70257,140.82588 q -0.185008,0.0165 -0.361538,-0.005 -0.172319,-0.0255 -0.306723,-0.0931 -0.1386,-0.0717 -0.222462,-0.18959 -0.08806,-0.12208 -0.100342,-0.29868 -0.0123,-0.16398 0.05517,-0.27736 0.06327,-0.11339 0.164277,-0.17206 0.101006,-0.0587 0.227142,-0.0668 0.121941,-0.0124 0.226963,0.0298 0.109235,0.038 0.184735,0.13067 0.07551,0.0884 0.08367,0.22297 0.01225,0.19341 -0.08039,0.27732 -0.09264,0.0839 -0.222977,0.0879 -0.130333,0.004 -0.222712,-0.0551 -0.09658,-0.059 -0.104742,-0.19359 -0.0041,-0.0673 0.01703,-0.11347 0.01691,-0.0504 0.04639,-0.0798 0.02529,-0.0336 0.06315,-0.0461 0.03787,-0.0168 0.0715,-0.0167 0.07148,-0.004 0.113446,0.0338 0.04618,0.0337 0.05446,0.1052 0.0041,0.0673 -0.03802,0.0966 -0.04209,0.0251 -0.0967,0.004 -0.03781,-0.0127 -0.04193,-0.0589 -0.0083,-0.0463 0.01276,-0.0841 -0.03785,0.008 -0.06313,0.0377 -0.02528,0.0294 -0.02539,0.0882 -1.41e-4,0.0757 0.0418,0.1304 0.04195,0.0505 0.159675,0.0423 0.05886,1.1e-4 0.09254,-0.0293 0.03789,-0.0294 0.05898,-0.0672 0.02109,-0.0378 0.02536,-0.0756 0.0085,-0.042 0.0085,-0.0673 4.7e-5,-0.0252 -0.01246,-0.0757 -0.0083,-0.0505 -0.04607,-0.0968 -0.03354,-0.0505 -0.100733,-0.0885 -0.06299,-0.0379 -0.172279,-0.0466 -0.113501,-0.004 -0.185048,0.0375 -0.07154,0.0377 -0.113696,0.10069 -0.04216,0.063 -0.05911,0.13442 -0.01695,0.0714 -0.01284,0.12609 0.004,0.10932 0.0669,0.19772 0.05869,0.0884 0.1805,0.14748 0.117611,0.0549 0.294141,0.0762 0.180734,0.0214 0.416215,-0.008 0.06336,-0.15964 0.122533,-0.33189 0.05918,-0.17226 0.109937,-0.34033 0.05076,-0.16806 0.08889,-0.32775 0.03813,-0.15968 0.0552,-0.29418 0.03843,-0.31943 -0.06213,-0.50039 -0.100553,-0.18517 -0.298127,-0.19394 l 0.01702,-0.10928 q 0.07565,0.0128 0.214351,0.0298 0.142905,0.0171 0.311043,0.03 0.168146,0.009 0.336307,0.009 0.168169,-0.004 0.302752,-0.0331 l 0.0041,0.0673 q -0.05468,0.0167 -0.10096,0.0335 -0.04628,0.0167 -0.07576,0.0461 -0.02947,0.0252 -0.04217,0.0714 -0.01268,0.042 0.004,0.10931 0.01668,0.0715 0.05415,0.27337 0.03746,0.20186 0.09161,0.47522 0.05415,0.27337 0.125028,0.5888 0.07088,0.31544 0.154425,0.60567 0.08354,0.29023 0.167208,0.5132 0.08787,0.22298 0.17589,0.36608 0.08803,0.1389 0.180422,0.18952 0.09239,0.0548 0.19337,0.009 0.0505,-0.0293 0.08843,-0.0797 0.03372,-0.0462 0.05907,-0.1176 0.02536,-0.0714 0.02976,-0.18072 l 0.06308,-0.0125 q 0.01669,0.0673 0.0081,0.17239 -0.0086,0.10088 -0.04662,0.2017 -0.03802,0.10083 -0.113836,0.17636 -0.07582,0.0797 -0.193557,0.0921 -0.09672,0.0124 -0.218594,-0.009 -0.117674,-0.0212 -0.239403,-0.12237 -0.117526,-0.10111 -0.230644,-0.31152 -0.108915,-0.21041 -0.188112,-0.57631 -0.02083,-0.10514 -0.04166,-0.20607 -0.02083,-0.10514 -0.04167,-0.20187 -0.121932,0.008 -0.332157,0.0204 -0.210225,0.0122 -0.437274,0.0286 -0.06355,0.26473 -0.09757,0.47067 -0.02125,0.12608 -0.0214,0.20596 0.004,0.0799 0.02498,0.13037 0.02093,0.0463 0.06712,0.0758 0.05039,0.0295 0.12602,0.0549 l -0.0044,0.0883 q -0.07144,-0.0169 -0.218571,-0.0214 -0.147133,-0.004 -0.31531,0.004 -0.16398,0.0123 -0.327984,0.0372 -0.159808,0.0291 -0.25239,0.0794 l -0.03337,-0.143 q 0.08835,-0.0377 0.151439,-0.0502 0.05889,-0.0167 0.105178,-0.0418 0.0463,-0.0293 0.08844,-0.0839 0.04215,-0.0588 0.08861,-0.1722 0.03799,-0.084 0.101342,-0.23944 0.06755,-0.15543 0.152008,-0.35706 z m 0.827269,-1.76416 q -0.03388,0.13446 -0.08466,0.31094 -0.05078,0.17647 -0.105804,0.37817 -0.05502,0.19748 -0.114274,0.41178 -0.05505,0.2143 -0.105881,0.42021 0.197644,-0.0291 0.37004,-0.0456 0.176601,-0.0165 0.306941,-0.0247 -0.09585,-0.45422 -0.166646,-0.8159 -0.0708,-0.36168 -0.09972,-0.63499 z m 1.288021,1.41074 q 0.0088,-0.20177 0.08062,-0.39923 0.07605,-0.20165 0.198253,-0.35698 0.122214,-0.15952 0.282139,-0.25171 0.159924,-0.0922 0.340674,-0.0793 0.138718,0.009 0.239497,0.0719 0.100787,0.059 0.172076,0.15586 0.0755,0.0926 0.125723,0.21464 0.05023,0.11781 0.08363,0.24399 -0.0079,-0.25646 -0.02426,-0.52134 -0.01632,-0.26489 -0.04953,-0.49617 -0.02074,-0.15139 -0.04989,-0.29858 -0.02499,-0.12617 -0.06258,-0.26077 -0.03337,-0.13879 -0.07941,-0.24818 0.184922,0.0298 0.403493,0.0512 0.222782,0.0172 0.4962,-0.0663 l -1.56e-4,0.0841 q -0.06309,0.0167 -0.130396,0.0376 -0.0673,0.0167 -0.122033,0.0628 -0.05053,0.0461 -0.08854,0.13436 -0.03379,0.084 -0.03827,0.23116 -0.0044,0.10088 -0.0047,0.25643 -2.81e-4,0.15135 -6.33e-4,0.34053 -3.43e-4,0.18498 -7.26e-4,0.39097 0.0038,0.20181 0.0077,0.3994 0.0038,0.1934 0.0077,0.36997 0.0081,0.17238 0.01625,0.30272 0.01225,0.19341 0.04986,0.3154 0.03761,0.12199 0.09633,0.19777 0.05872,0.0716 0.134318,0.11376 0.07559,0.0422 0.163824,0.0718 l -0.02116,0.0756 q -0.07144,-0.0127 -0.172318,-0.0255 -0.100873,-0.0128 -0.214382,-0.013 -0.113509,-2.2e-4 -0.235449,0.0122 -0.12194,0.0124 -0.227103,0.0458 0.03392,-0.15549 0.06783,-0.30257 0.03391,-0.14708 0.05528,-0.34042 -0.04643,0.10081 -0.126527,0.21837 -0.07589,0.11757 -0.185383,0.21827 -0.105288,0.1007 -0.244138,0.1635 -0.13885,0.0628 -0.302784,0.0499 -0.197566,-0.013 -0.327687,-0.12253 -0.125918,-0.10954 -0.201286,-0.27363 -0.07116,-0.1683 -0.09601,-0.37014 -0.02485,-0.20184 -0.01607,-0.40362 z m 0.97284,-0.91887 q -0.121909,-0.004 -0.231346,0.0668 -0.105233,0.0713 -0.189556,0.20144 -0.08432,0.12597 -0.139295,0.30243 -0.05077,0.17228 -0.06376,0.37405 -0.013,0.21017 0.01195,0.35316 0.02496,0.14298 0.07944,0.23557 0.05869,0.0926 0.142679,0.139 0.0882,0.0464 0.18908,0.055 0.16813,0.0171 0.298572,-0.0457 0.130442,-0.0628 0.218922,-0.16775 0.08848,-0.10494 0.13495,-0.22677 0.05068,-0.12603 0.05509,-0.23532 0.0044,-0.1051 -0.02891,-0.27752 -0.0333,-0.17664 -0.100256,-0.34492 -0.06274,-0.17248 -0.159199,-0.29878 -0.09646,-0.1263 -0.218367,-0.13073 z m 2.442502,0.0255 q 0.151313,0.0171 0.382488,0.0428 0.231182,0.0214 0.525527,-0.0116 l -0.0043,0.0504 q -0.04627,0.0125 -0.100959,0.0335 -0.05469,0.0209 -0.109414,0.0587 -0.05052,0.0377 -0.09688,0.10072 -0.04635,0.0588 -0.07596,0.15541 -0.04225,0.11343 -0.12258,0.35711 -0.07186,0.21007 -0.198659,0.57559 -0.122596,0.36552 -0.325475,0.94951 -0.07566,-0.009 -0.13871,-0.0129 -0.05886,-1e-4 -0.1051,-1.9e-4 -0.05045,-9e-5 -0.0967,0.004 -0.146079,-0.57202 -0.242115,-0.92534 -0.09183,-0.35331 -0.146119,-0.551 -0.06683,-0.23135 -0.100272,-0.33651 -0.07527,-0.21875 -0.180226,-0.29462 -0.100749,-0.0801 -0.205826,-0.0929 l 0.01695,-0.0714 q 0.07144,0.0127 0.180734,0.0214 0.109289,0.009 0.231198,0.013 0.121917,2.3e-4 0.252258,-0.008 0.13034,-0.008 0.248107,-0.0374 l 0.02508,0.0757 q -0.06727,0.004 -0.130418,0.0502 -0.06314,0.0419 -0.101147,0.13434 -0.038,0.0882 -0.04247,0.23115 -2.57e-4,0.13873 0.04983,0.33221 0.08769,0.31967 0.192229,0.62255 0.108743,0.3029 0.217642,0.52171 0.05068,-0.12603 0.118314,-0.32349 0.07184,-0.19746 0.139474,-0.39913 0.07185,-0.20586 0.126847,-0.39074 0.055,-0.18908 0.07202,-0.29835 0.02125,-0.12608 0.0046,-0.2144 -0.01665,-0.0883 -0.05437,-0.15144 -0.03772,-0.0631 -0.0965,-0.10108 -0.05457,-0.0421 -0.10918,-0.0675 z m 0.826171,1.09038 q 0.01307,-0.24801 0.105959,-0.46224 0.09709,-0.21423 0.248717,-0.36529 0.151634,-0.15527 0.340964,-0.2348 0.193533,-0.0795 0.399484,-0.0539 0.20595,0.0256 0.315068,0.12671 0.113321,0.10111 0.159331,0.22731 0.04602,0.12201 0.05,0.24393 0.004,0.12192 -3.52e-4,0.18918 -0.0043,0.0631 -0.01707,0.1387 -0.0085,0.0757 -0.0213,0.15131 -0.0085,0.0715 -0.0087,0.13872 -1.18e-4,0.0631 0.01241,0.10512 -0.105039,-0.0338 -0.243701,-0.0719 -0.138655,-0.0423 -0.302573,-0.0636 -0.159714,-0.0213 -0.336299,-0.0132 -0.172373,0.004 -0.344839,0.0582 -0.0045,0.15975 0.02043,0.31955 0.02914,0.1556 0.09193,0.29866 0.05443,0.12201 0.125723,0.21464 0.0713,0.0926 0.15108,0.14321 0.08399,0.0464 0.168067,0.0508 0.08828,0.004 0.176663,-0.0501 0.07156,-0.0503 0.109531,-0.12171 0.03374,-0.0588 0.02549,-0.14289 -0.004,-0.0841 -0.08793,-0.19355 l 0.525551,-0.0242 q -0.02959,0.084 -0.08868,0.21004 -0.05489,0.12602 -0.151798,0.24355 -0.09691,0.11754 -0.239997,0.19715 -0.143085,0.0796 -0.344863,0.0708 -0.20177,-0.013 -0.365508,-0.131 -0.159542,-0.11381 -0.268504,-0.29899 -0.108961,-0.18518 -0.163184,-0.4165 -0.05421,-0.23553 -0.04114,-0.48354 z m 1.044473,-1.00703 q -0.11769,-0.0128 -0.231331,0.0584 -0.109438,0.0713 -0.202176,0.20562 -0.08853,0.13016 -0.151923,0.31082 -0.0634,0.18066 -0.08899,0.3782 0.239684,-0.029 0.445681,-0.0286 0.206005,-0.004 0.38252,0.0259 0.04642,-0.0966 0.08454,-0.24788 0.03813,-0.15548 0.0342,-0.30263 -0.0039,-0.15135 -0.06677,-0.26498 -0.05865,-0.11361 -0.205747,-0.13491 z m 1.457751,0.56605 q 0.05074,-0.15545 0.143515,-0.31083 0.09278,-0.15538 0.210716,-0.27708 0.122151,-0.12589 0.261017,-0.1971 0.14307,-0.0712 0.294399,-0.0625 0.13871,0.0129 0.226791,0.12233 0.09229,0.10948 0.146657,0.26093 0.05438,0.14724 0.0709,0.30702 0.02073,0.15559 0.01633,0.26068 -0.0087,0.13031 -0.05512,0.25214 -0.04226,0.11764 -0.09714,0.23945 -0.05067,0.11762 -0.09714,0.24366 -0.04648,0.12603 -0.05514,0.26475 -0.0087,0.13872 0.02894,0.26491 0.04181,0.12199 0.117361,0.1894 0.07555,0.0674 0.176468,0.055 0.105119,-0.008 0.214669,-0.14254 l 0.0546,0.0463 q -0.0422,0.0714 -0.13899,0.13847 -0.09683,0.0713 -0.227153,0.071 -0.08828,-1.7e-4 -0.176499,-0.0382 -0.08402,-0.0338 -0.155346,-0.10959 -0.06712,-0.08 -0.113134,-0.202 -0.04181,-0.122 -0.04569,-0.29858 2.74e-4,-0.14714 0.03834,-0.27319 0.03807,-0.12605 0.08035,-0.25209 0.04648,-0.12604 0.08036,-0.2605 0.03809,-0.13866 0.0342,-0.30683 -0.0081,-0.15557 -0.04998,-0.25234 -0.03765,-0.10097 -0.09641,-0.15152 -0.05455,-0.0548 -0.121792,-0.0675 -0.06303,-0.0169 -0.117697,-0.009 -0.113548,0.0208 -0.231464,0.12989 -0.117908,0.10489 -0.214905,0.26866 -0.09279,0.15959 -0.152024,0.36547 -0.05924,0.20589 -0.06384,0.42029 l 1.6e-5,-0.008 q -1.95e-4,0.1051 -0.0045,0.18497 -0.0043,0.0799 0.0039,0.13454 -2.27e-4,0.12191 0.02066,0.19342 0.0251,0.0673 0.05446,0.1052 0.02936,0.0379 0.06296,0.0548 0.03781,0.0127 0.06303,0.0169 l -0.0043,0.0757 q -0.05883,-0.0127 -0.151322,-0.0129 -0.08828,-0.004 -0.193401,0.008 -0.105124,0.0124 -0.218695,0.0458 -0.109367,0.0334 -0.201965,0.0921 l -0.02932,-0.0589 q 0.06315,-0.0503 0.109469,-0.0881 0.05053,-0.0419 0.08428,-0.10494 0.03795,-0.063 0.06336,-0.16384 0.02541,-0.10085 0.03833,-0.26478 0.02584,-0.33208 0.03484,-0.65157 0.009,-0.32369 -0.0157,-0.6012 -0.0082,-0.0883 -0.046,-0.13462 -0.03355,-0.0463 -0.08396,-0.0632 -0.05041,-0.0211 -0.105062,-0.0212 -0.05465,-1e-4 -0.105108,0.004 l -0.0041,-0.0715 q 0.0925,-0.008 0.18922,-0.0207 0.10092,-0.0124 0.193432,-0.0249 0.09251,-0.0124 0.164004,-0.0249 0.0757,-0.0167 0.117783,-0.0376 -0.0087,0.13452 -0.0131,0.26904 -2.42e-4,0.13032 -0.0046,0.23962 -0.0044,0.12611 -0.0046,0.23962 z m 2.591203,1.45101 q 0.0967,1.8e-4 0.18089,-0.0669 0.0842,-0.0671 0.11814,-0.2268 l 0.0882,0.0338 q -0.0128,0.10088 -0.0803,0.20585 -0.0674,0.10077 -0.17268,0.17205 -0.10524,0.0713 -0.23981,0.092 -0.13036,0.0208 -0.26897,-0.0425 -0.15122,-0.0718 -0.21827,-0.18538 -0.067,-0.11364 -0.0836,-0.26081 -0.0165,-0.15137 -0.004,-0.32372 0.0129,-0.17654 0.0133,-0.36572 2e-4,-0.10931 -0.004,-0.25646 2.8e-4,-0.15134 -0.008,-0.31952 -0.004,-0.16817 -0.0162,-0.34476 -0.0123,-0.1808 -0.0246,-0.35318 -0.14297,0.0166 -0.27334,0.0415 -0.12616,0.0208 -0.214505,0.0542 -0.0041,-0.0378 1.09e-4,-0.0589 3.9e-5,-0.021 0.0043,-0.0378 3.9e-5,-0.021 7.8e-5,-0.042 4.7e-5,-0.0252 -0.0083,-0.0673 0.100908,-0.008 0.222838,-0.0164 0.12614,-0.008 0.25648,-0.0163 -0.004,-0.0589 -0.008,-0.11353 -0.004,-0.0589 -0.0124,-0.11353 -0.0207,-0.19763 -0.0793,-0.31545 -0.0544,-0.11782 -0.12159,-0.181 -0.0671,-0.0632 -0.12596,-0.0843 -0.0588,-0.0253 -0.08822,-0.0338 l 0.01275,-0.0799 q 0.07981,0.0338 0.197495,0.0466 0.1177,0.009 0.24384,4.5e-4 0.13035,-0.0124 0.25232,-0.0416 0.12617,-0.0292 0.21875,-0.0753 -0.0423,0.11764 -0.0764,0.37402 -0.0299,0.25639 -0.0516,0.59688 0.21864,-0.0122 0.31537,-0.0331 -0.0211,0.0252 -0.0212,0.084 -1e-4,0.0547 0.0124,0.10092 -0.0714,-0.009 -0.15133,-0.009 -0.0799,-0.004 -0.16395,-0.005 -0.0131,0.24381 -0.0178,0.50866 -0.005,0.26484 0.003,0.52551 0.0121,0.25647 0.0327,0.50454 0.0248,0.24388 0.0622,0.44995 0.0334,0.14721 0.11732,0.21042 0.084,0.0632 0.18065,0.0676 z m 2.08523,-0.013 q 0.0294,6e-5 0.0589,-0.0167 0.0252,-0.0126 0.0463,-0.0377 0.0253,-0.0252 0.0422,-0.0756 l 0.0631,1.2e-4 q -0.004,0.042 -0.0254,0.0966 -0.0211,0.0504 -0.0632,0.0966 -0.0421,0.042 -0.10523,0.0713 -0.0631,0.0293 -0.14718,0.0207 -0.26901,-0.0257 -0.32274,-0.5219 -0.038,0.10082 -0.0887,0.20583 -0.0464,0.10502 -0.11387,0.19318 -0.0674,0.0882 -0.16001,0.14264 -0.0884,0.0587 -0.21452,0.0585 -0.15975,-2.9e-4 -0.28154,-0.0678 -0.1176,-0.0633 -0.19727,-0.17273 -0.0797,-0.10946 -0.11305,-0.24825 -0.0334,-0.143 -0.0247,-0.29433 0.013,-0.21018 0.0597,-0.4245 0.0466,-0.21852 0.0554,-0.40769 0.013,-0.19336 -0.0456,-0.33641 -0.0544,-0.14724 -0.24764,-0.21486 l 0.0169,-0.063 q 0.063,0.0127 0.13867,0.0339 0.0756,0.0212 0.15969,0.0339 0.0841,0.0128 0.17655,0.0129 0.0967,1.8e-4 0.19343,-0.0249 -0.0507,0.10922 -0.0929,0.20583 -0.038,0.0966 -0.0635,0.21429 -0.0254,0.11766 -0.0383,0.26899 -0.0129,0.15132 -0.0133,0.37413 -4.1e-4,0.22281 0.0329,0.37422 0.0376,0.15142 0.10045,0.23982 0.0671,0.0884 0.15532,0.12641 0.0882,0.0338 0.19754,0.0256 0.10512,-0.0124 0.17675,-0.0964 0.0758,-0.0881 0.12234,-0.2268 0.0507,-0.14284 0.0763,-0.32357 0.0298,-0.18071 0.0386,-0.38249 0.009,-0.20178 6.4e-4,-0.34473 -0.004,-0.14295 -0.029,-0.23969 -0.025,-0.0967 -0.0754,-0.15569 -0.0503,-0.0632 -0.13435,-0.0969 l 0.009,-0.0673 q 0.0757,1.4e-4 0.18078,3.4e-4 0.1051,1.9e-4 0.21021,-0.004 0.10511,-0.008 0.19342,-0.0207 0.0925,-0.0124 0.1388,-0.0334 -0.0717,0.1386 -0.13098,0.35289 -0.0551,0.2101 -0.0933,0.44546 -0.0383,0.23115 -0.0513,0.46655 -0.013,0.2312 0.008,0.42042 0.0207,0.18502 0.0709,0.30282 0.0544,0.11361 0.15113,0.11379 z m 2.04623,-1.65259 q -0.004,0.0715 -0.017,0.12189 -0.009,0.0504 -0.0128,0.0925 -0.004,0.0378 0.004,0.0715 0.008,0.0336 0.0461,0.0758 -0.11345,-0.0339 -0.20591,-0.0466 -0.0925,-0.017 -0.16391,-0.0255 -0.0799,-0.004 -0.14294,-2.7e-4 0.0422,-0.0588 0.0549,-0.13022 0.017,-0.0714 0.0256,-0.17652 0.004,-0.0757 -0.008,-0.15557 -0.0125,-0.0799 -0.0839,-0.10105 -0.0294,-0.004 -0.0631,-0.004 -0.0336,-7e-5 -0.0757,0.0209 -0.0421,0.0167 -0.0968,0.0587 -0.0547,0.0419 -0.12215,0.12169 -0.0969,0.11333 -0.17281,0.24352 -0.0759,0.12598 -0.1308,0.252 -0.0549,0.12602 -0.0887,0.23946 -0.0296,0.10925 -0.034,0.18912 -2e-5,0.0126 -0.004,0.0168 0.008,0.16397 0.0204,0.30693 0.0123,0.14296 0.0248,0.24388 0.0124,0.0967 0.0333,0.15982 0.0251,0.0631 0.0544,0.1052 0.0294,0.0379 0.063,0.0632 0.0336,0.0253 0.063,0.0464 l 0.008,0.0883 q -0.0588,-0.0253 -0.16809,-0.0382 -0.10929,-0.009 -0.23543,-4.4e-4 -0.12193,0.008 -0.24811,0.0374 -0.12617,0.0292 -0.21455,0.0795 l -0.0124,-0.0967 q 0.1178,-0.046 0.21473,-0.17197 0.10114,-0.13013 0.12687,-0.40335 0.0129,-0.1345 0.0257,-0.27742 0.0171,-0.1429 0.0216,-0.29004 0.004,-0.14713 -0.004,-0.30269 -0.008,-0.15557 -0.0456,-0.3196 -0.0334,-0.11777 -0.0753,-0.21875 -0.0335,-0.0841 -0.088,-0.15571 -0.0503,-0.0758 -0.11334,-0.0927 l -0.008,-0.0967 q 0.0504,0.009 0.12609,0.0171 0.0799,0.009 0.16813,0.0171 0.0883,0.004 0.18077,0.005 0.0925,1.7e-4 0.17658,-0.008 -0.0169,0.0756 -0.0468,0.28158 -0.0256,0.20595 -0.0429,0.46236 0.0549,-0.12601 0.14346,-0.2814 0.0886,-0.15538 0.20653,-0.28549 0.11795,-0.13011 0.26524,-0.20971 0.1473,-0.0838 0.32383,-0.0667 0.10508,0.0128 0.17224,0.0718 0.0714,0.059 0.10904,0.13894 0.0419,0.08 0.0543,0.16826 0.0167,0.0883 0.0123,0.15978 z m 0.17532,0.67297 q 0.0131,-0.24801 0.10596,-0.46225 0.0971,-0.21422 0.24872,-0.36529 0.15163,-0.15526 0.34096,-0.23479 0.19353,-0.0795 0.39948,-0.0539 0.20595,0.0256 0.31507,0.12671 0.11332,0.1011 0.15933,0.22731 0.046,0.122 0.05,0.24393 0.004,0.12192 -3.5e-4,0.18918 -0.004,0.0631 -0.0171,0.1387 -0.009,0.0757 -0.0213,0.15131 -0.009,0.0715 -0.009,0.13872 -1.2e-4,0.0631 0.0124,0.10512 -0.10504,-0.0338 -0.24371,-0.0719 -0.13865,-0.0423 -0.30257,-0.0636 -0.15971,-0.0213 -0.3363,-0.0132 -0.17237,0.004 -0.34484,0.0582 -0.004,0.15975 0.0204,0.31955 0.0291,0.1556 0.0919,0.29865 0.0544,0.12202 0.12573,0.21464 0.0713,0.0926 0.15108,0.14322 0.084,0.0464 0.16806,0.0508 0.0883,0.004 0.17667,-0.0501 0.0716,-0.0503 0.10953,-0.12171 0.0337,-0.0588 0.0255,-0.14289 -0.004,-0.0841 -0.0879,-0.19355 l 0.52555,-0.0242 q -0.0296,0.084 -0.0887,0.21004 -0.0549,0.12602 -0.1518,0.24355 -0.0969,0.11753 -0.24,0.19715 -0.14308,0.0796 -0.34486,0.0708 -0.20177,-0.013 -0.36551,-0.131 -0.15954,-0.11381 -0.2685,-0.29899 -0.10896,-0.18518 -0.16319,-0.4165 -0.0542,-0.23553 -0.0411,-0.48354 z m 1.04447,-1.00703 q -0.11769,-0.0128 -0.23133,0.0584 -0.10944,0.0713 -0.20218,0.20562 -0.0885,0.13016 -0.15192,0.31082 -0.0634,0.18065 -0.089,0.3782 0.23969,-0.029 0.44569,-0.0286 0.206,-0.004 0.38252,0.0259 0.0464,-0.0966 0.0845,-0.24788 0.0381,-0.15548 0.0342,-0.30263 -0.004,-0.15135 -0.0668,-0.26498 -0.0587,-0.11361 -0.20575,-0.13491 z"
       id="text6"
       aria-label="Adventure" /></g></svg>
