<?xml version="1.0" encoding="UTF-8" standalone="no"?>
<!-- Created with Inkscape (http://www.inkscape.org/) -->

<svg
   width="50.246159mm"
   height="58.462292mm"
   viewBox="0 0 50.246159 58.462292"
   version="1.1"
   id="svg1"
   xml:space="preserve"
   sodipodi:docname="LogoL.svg"
   inkscape:version="1.3.2 (091e20e, 2023-11-25, custom)"
   xmlns:inkscape="http://www.inkscape.org/namespaces/inkscape"
   xmlns:sodipodi="http://sodipodi.sourceforge.net/DTD/sodipodi-0.dtd"
   xmlns="http://www.w3.org/2000/svg"
   xmlns:svg="http://www.w3.org/2000/svg"><sodipodi:namedview
     id="namedview1"
     pagecolor="#ffffff"
     bordercolor="#000000"
     borderopacity="0.25"
     inkscape:showpageshadow="2"
     inkscape:pageopacity="0.0"
     inkscape:pagecheckerboard="0"
     inkscape:deskcolor="#d1d1d1"
     inkscape:document-units="mm"
     inkscape:zoom="6.4818462"
     inkscape:cx="168.93335"
     inkscape:cy="136.14948"
     inkscape:window-width="3840"
     inkscape:window-height="2054"
     inkscape:window-x="2869"
     inkscape:window-y="-11"
     inkscape:window-maximized="1"
     inkscape:current-layer="layer1" /><defs
     id="defs1"><rect
       x="105.52549"
       y="841.73547"
       width="145.67294"
       height="45.343044"
       id="rect6" /><rect
       x="224.01025"
       y="859.01453"
       width="210.75903"
       height="41.976196"
       id="rect5" /></defs><g
     inkscape:label="Layer 1"
     inkscape:groupmode="layer"
     id="layer1"
     transform="translate(-61.208569,-109.22146)"><path
       id="path1"
       style="fill:#ffff00;fill-opacity:1;stroke:none;stroke-width:1;stroke-opacity:1"
       d="m 61.317029,109.22182 -0.0075,4.03587 -0.0075,4.03586 2.42152,0.005 2.421521,0.005 -0.03923,21.12103 -0.03923,21.12104 -2.421521,-0.005 -2.42152,-0.005 -0.0075,4.03586 -0.0075,4.03587 20.582914,0.0382 20.582917,0.0382 0.0192,-10.35872 0.0192,-10.35873 -3.632277,-0.007 -3.63228,-0.007 -10e-4,0.53812 -0.001,0.53812 2.42151,0.005 2.42152,0.005 -0.003,1.34528 -0.003,1.3453 -0.80718,-0.002 -0.80717,-0.002 -0.002,0.80717 -0.002,0.80717 -0.80717,-0.002 -0.80718,-0.002 -0.004,2.28699 -0.004,2.28699 0.40359,5.1e-4 0.40358,5.1e-4 0.003,-1.74888 0.003,-1.74888 0.80717,0.002 0.80717,0.002 0.002,-0.9417 0.002,-0.9417 0.80718,0.002 0.807167,0.002 0.003,-1.74887 0.003,-1.74888 0.40358,5.1e-4 0.40359,5.1e-4 -0.004,2.15246 -0.004,2.15247 -0.80717,-0.002 -0.807177,-0.002 -0.001,0.53811 -10e-4,0.53811 0.807167,0.002 0.80717,0.002 -0.0125,6.72644 -0.0125,6.72645 -1.21076,-0.002 -1.210757,-0.002 0.001,-0.53811 0.001,-0.53812 0.80718,0.002 0.807167,0.002 0.004,-2.15246 0.004,-2.15247 -0.40359,-5.1e-4 -0.403587,-5.1e-4 -0.003,1.74888 -0.003,1.74888 -0.80718,-0.002 -0.80717,-0.002 -0.002,0.9417 -0.002,0.9417 -2.01793,-0.004 -2.01793,-0.004 0.003,-1.34529 0.003,-1.34529 0.40359,5.1e-4 0.40358,5.1e-4 -0.002,0.80718 -0.002,0.80717 0.40359,5e-4 0.40359,5.1e-4 0.003,-1.34528 0.003,-1.3453 -1.21076,-0.002 -1.21076,-0.002 -0.004,1.8834 -0.004,1.88341 -0.40359,-5.1e-4 -0.40359,-5.1e-4 0.002,-0.94171 0.002,-0.9417 -0.40358,-5.1e-4 -0.40359,-5.1e-4 -0.002,0.9417 -0.002,0.94171 -2.01793,-0.004 -2.01794,-0.004 0.002,-1.34529 0.002,-1.34529 0.80717,0.002 0.80717,0.002 0.002,-0.9417 0.002,-0.94171 0.80717,0.002 0.80718,0.002 7.6e-4,-0.40359 7.6e-4,-0.40358 -1.21076,-0.002 -1.21076,-0.002 -0.001,0.80717 -10e-4,0.80718 -0.40358,-5.1e-4 -0.40359,-5.1e-4 10e-4,-0.80717 0.001,-0.80718 -0.40359,-5.1e-4 -0.40358,-5.1e-4 -0.005,2.69059 -0.005,2.69058 -2.01793,-0.004 -2.01794,-0.004 0.002,-0.9417 0.002,-0.9417 -0.40359,-5.1e-4 -0.40358,-5.1e-4 -0.002,0.9417 -0.002,0.94171 -4.43945,-0.008 -4.439454,-0.008 0.0017,-0.9417 0.0017,-0.9417 -0.403587,-5.1e-4 -0.403587,-5.1e-4 -0.0017,0.9417 -0.0017,0.94171 -2.825107,-0.005 -2.825107,-0.005 0.0017,-0.9417 0.0017,-0.94171 -0.807173,-0.002 -0.807174,-0.002 0.0033,-1.74887 0.0033,-1.74888 -1.210761,-0.002 -1.21076,-0.002 -7.62e-4,0.40359 -7.63e-4,0.40359 0.807173,0.002 0.807173,0.002 -0.0025,1.34529 -0.0025,1.34529 -0.403587,-5.1e-4 -0.403587,-5.1e-4 0.0017,-0.9417 0.0017,-0.94171 -0.403587,-5.1e-4 -0.403586,-5.1e-4 -0.0025,1.34529 -0.0025,1.34529 1.614346,0.003 1.614347,0.003 -10e-4,0.53812 -0.001,0.53812 -2.017933,-0.004 -2.017934,-0.004 0.006,-3.22869 0.006,-3.22869 2.017933,0.004 2.017933,0.004 -0.0035,1.8834 -0.0035,1.88341 0.807173,0.002 0.807173,0.002 -0.0015,0.80718 -0.0015,0.80717 1.21076,0.002 1.21076,0.002 7.63e-4,-0.40359 7.62e-4,-0.40358 -0.807173,-0.002 -0.807174,-0.002 0.0017,-0.9417 0.0017,-0.9417 -0.807174,-0.002 -0.807173,-0.002 0.0075,-4.03587 0.0075,-4.03587 0.403586,5.1e-4 0.403587,5.1e-4 -0.0017,0.94171 -0.0017,0.9417 1.614347,0.003 1.614346,0.003 -7.62e-4,0.40359 -7.63e-4,0.40359 -1.614347,-0.003 -1.614347,-0.003 -0.001,0.53811 -10e-4,0.53812 2.017933,0.004 2.017933,0.004 0.0035,-1.8834 0.0035,-1.88341 1.21076,0.002 1.21076,0.002 -0.0035,1.88341 -0.0035,1.88341 0.403586,5e-4 0.403587,5.1e-4 0.0043,-2.28699 0.0043,-2.287 -2.017933,-0.004 -2.017934,-0.004 -0.0017,0.94171 -0.0017,0.9417 -1.21076,-0.002 -1.210761,-0.002 0.0017,-0.9417 0.0017,-0.9417 -0.807173,-0.002 -0.807174,-0.002 0.0025,-1.34529 0.0025,-1.34529 0.403587,5.1e-4 0.403587,5.1e-4 -0.0017,0.9417 -0.0017,0.9417 0.403587,5.1e-4 0.403586,5.1e-4 0.0017,-0.94171 0.0017,-0.9417 0.807173,0.002 0.807173,0.002 0.0017,-0.94171 0.0017,-0.94169 0.403587,5.1e-4 0.403586,5e-4 -0.0025,1.34529 -0.0025,1.34529 -0.807173,-0.002 -0.807173,-0.002 -0.0025,1.34529 -0.0025,1.34529 0.403586,5.1e-4 0.403587,5e-4 0.0015,-0.80717 0.0015,-0.80717 1.614347,0.003 1.614347,0.003 0.001,-0.53811 0.001,-0.53812 -0.807174,-0.002 -0.807173,-0.002 0.0025,-1.34529 0.0025,-1.34529 0.807173,0.002 0.807173,0.002 0.004,-2.15246 0.004,-2.15247 -0.403586,-5.1e-4 -0.403587,-5e-4 -0.0033,1.74887 -0.0033,1.74888 -1.614346,-0.003 -1.614347,-0.003 -0.0017,0.9417 -0.0017,0.94171 -1.21076,-0.002 -1.21076,-0.002 0.0043,-2.28699 0.0043,-2.28699 1.614347,0.003 1.614347,0.003 0.0025,-1.34529 0.0025,-1.34529 -0.403587,-5e-4 -0.403587,-5.1e-4 -0.0017,0.9417 -0.0017,0.9417 -1.21076,-0.002 -1.21076,-0.002 0.006,-3.2287 0.006,-3.22869 1.21076,0.002 1.21076,0.002 -0.0017,0.9417 -0.0017,0.9417 1.21076,0.002 1.21076,0.002 7.63e-4,-0.40358 7.62e-4,-0.40359 -0.807173,-0.002 -0.807173,-0.002 0.001,-0.53811 0.001,-0.53812 2.42152,0.005 2.42152,0.005 7.63e-4,-0.40358 7.62e-4,-0.40359 -0.807173,-0.002 -0.807174,-0.002 0.0033,-1.74887 0.0033,-1.74888 -0.403586,-5.1e-4 -0.403587,-5.1e-4 -0.0015,0.80718 -0.0015,0.80717 -0.807174,-0.002 -0.807173,-0.002 -0.001,0.53812 -0.001,0.53811 0.807173,0.002 0.807174,0.002 -7.63e-4,0.40358 -7.63e-4,0.40359 -1.21076,-0.002 -1.21076,-0.002 0.0017,-0.9417 0.0017,-0.9417 -0.403587,-5.1e-4 -0.403587,-5.1e-4 -0.0017,0.9417 -0.0017,0.94171 -1.21076,-0.002 -1.21076,-0.002 0.0025,-1.34529 0.0025,-1.34529 0.403587,5.1e-4 0.403587,5.1e-4 -0.0017,0.9417 -0.0017,0.9417 0.403587,5.1e-4 0.403586,5.1e-4 0.0017,-0.9417 0.0017,-0.9417 1.614347,0.003 1.614347,0.003 0.0017,-0.9417 0.0017,-0.94171 1.614347,0.003 1.614347,0.003 0.0025,-1.34529 0.0025,-1.34529 -0.403587,-5.1e-4 -0.403586,-5.1e-4 -0.0017,0.94171 -0.0017,0.9417 -2.017933,-0.004 -2.017934,-0.004 0.0025,-1.34529 0.0025,-1.34529 1.21076,0.002 1.21076,0.002 -7.63e-4,0.40359 -7.62e-4,0.40359 -0.807174,-0.002 -0.807173,-0.002 -0.001,0.53812 -0.001,0.53811 1.21076,0.002 1.21076,0.002 0.0017,-0.9417 0.0017,-0.9417 0.807173,0.002 0.807173,0.002 7.63e-4,-0.40359 7.62e-4,-0.40359 -1.614347,-0.003 -1.614346,-0.003 0.006,-3.22869 0.006,-3.22869 0.403587,5.1e-4 0.403587,5e-4 -0.005,2.69059 -0.005,2.69058 0.403587,5.1e-4 0.403586,5.1e-4 0.0015,-0.80717 0.0015,-0.80718 0.807174,0.002 0.807173,0.002 10e-4,-0.53812 0.001,-0.53811 -0.807173,-0.002 -0.807174,-0.002 0.0025,-1.34529 0.0025,-1.34529 0.807174,0.002 0.807173,0.002 0.004,-2.15246 0.004,-2.15247 -0.403586,-5e-4 -0.403587,-5.1e-4 -0.0033,1.74887 -0.0033,1.74887 -0.403586,-5.1e-4 -0.403587,-5.1e-4 0.0017,-0.9417 0.0017,-0.9417 -0.403587,-5.1e-4 -0.403586,-5.1e-4 -0.0017,0.9417 -0.0017,0.94171 -1.21076,-0.002 -1.21076,-0.002 7.63e-4,-0.40359 7.63e-4,-0.40359 0.807173,0.002 0.807173,0.002 0.0025,-1.34529 0.0025,-1.34529 -0.403586,-5.1e-4 -0.403587,-5.1e-4 -0.0015,0.80718 -0.0015,0.80717 -0.807174,-0.002 -0.807173,-0.002 -0.0043,2.28699 -0.0043,2.28699 0.403586,5.1e-4 0.403587,5.1e-4 0.0017,-0.9417 0.0017,-0.94171 0.403586,5.1e-4 0.403587,5.1e-4 -0.0025,1.34529 -0.0025,1.34529 -0.807173,-0.002 -0.807174,-0.002 -0.001,0.53811 -0.001,0.53812 0.807174,0.002 0.807173,0.002 -0.0025,1.34528 -0.0025,1.34529 -0.403586,-5e-4 -0.403587,-5.1e-4 0.0017,-0.9417 0.0017,-0.94171 -0.807174,-0.002 -0.807173,-0.002 0.0017,-0.94171 0.0017,-0.9417 -0.403587,-5.1e-4 -0.403586,-5e-4 -0.0043,2.28699 -0.0043,2.28699 0.403587,5.1e-4 0.403586,5.1e-4 0.0017,-0.94171 0.0017,-0.9417 0.403586,5.1e-4 0.403587,5.1e-4 -0.0025,1.34529 -0.0025,1.34528 -0.807173,-0.002 -0.807174,-0.002 -0.0025,1.34529 -0.0025,1.34529 0.403587,5.1e-4 0.403587,5.1e-4 0.0015,-0.80718 0.0015,-0.80717 0.403587,5.1e-4 0.403587,5.1e-4 -0.0015,0.80717 -0.0015,0.80717 0.807173,0.002 0.807173,0.002 -0.001,0.53812 -10e-4,0.53812 -2.017933,-0.004 -2.017933,-0.004 0.01249,-6.72645 0.01249,-6.72645 0.403586,5.1e-4 0.403587,5.1e-4 -0.0033,1.74888 -0.0033,1.74887 0.403587,5.1e-4 0.403586,5.1e-4 0.0057,-3.09417 0.0057,-3.09416 -0.403586,-5.1e-4 -0.403587,-5.1e-4 -0.0015,0.80718 -0.0015,0.80717 -0.403587,-5.1e-4 -0.403586,-5.1e-4 0.0025,-1.34529 0.0025,-1.34529 1.21076,0.002 1.21076,0.002 -0.0017,0.9417 -0.0017,0.9417 0.403586,5.1e-4 0.403587,5.1e-4 0.0017,-0.94171 0.0017,-0.94169 1.21076,0.002 1.210761,0.002 -0.0017,0.94171 -0.0017,0.9417 0.403587,5.1e-4 0.403586,5.1e-4 0.0017,-0.9417 0.0017,-0.9417 0.807173,0.002 0.807174,0.002 7.63e-4,-0.40359 7.62e-4,-0.40359 -1.614347,-0.003 -1.614346,-0.003 7.62e-4,-0.40359 7.63e-4,-0.40358 1.614347,0.003 1.614347,0.003 0.001,-0.53812 0.001,-0.53811 -0.807174,-0.001 -0.807174,-0.001 7.63e-4,-0.40359 7.63e-4,-0.40359 1.210759,0.002 1.210762,0.002 -0.002,0.9417 -0.002,0.9417 0.40359,7.6e-4 0.40358,7.7e-4 0.002,-0.9417 0.002,-0.94171 1.21076,0.002 1.21076,0.002 -0.002,0.9417 -0.002,0.9417 0.40359,7.6e-4 0.40359,7.7e-4 0.002,-1.34529 0.002,-1.34529 -1.61435,-0.003 -1.61435,-0.003 0.002,-0.9417 0.002,-0.9417 -0.40358,-7.7e-4 -0.40359,-7.6e-4 -0.002,0.9417 -0.002,0.94171 -1.210757,-0.002 -1.21076,-0.002 0.0017,-0.9417 0.0017,-0.9417 -4.439454,-0.008 -4.439454,-0.008 -7.62e-4,0.40359 -7.63e-4,0.40358 2.42152,0.004 2.421521,0.004 -0.0035,1.88341 -0.0035,1.8834 0.403586,7.7e-4 0.403587,7.6e-4 0.0035,-1.88341 0.0035,-1.8834 1.21076,0.002 1.21076,0.002 -0.0025,1.34529 -0.0025,1.34529 -0.403587,-7.6e-4 -0.403586,-7.6e-4 0.0015,-0.80718 0.0015,-0.80717 -0.403587,-7.6e-4 -0.403587,-7.7e-4 -0.0033,1.74888 -0.0033,1.74888 -2.017934,-0.004 -2.017933,-0.004 0.0017,-0.94171 0.0017,-0.9417 -0.403587,-7.6e-4 -0.403586,-7.6e-4 -0.0017,0.9417 -0.0017,0.9417 -1.21076,-0.002 -1.21076,-0.002 0.0017,-0.9417 0.0017,-0.9417 -0.403587,-7.6e-4 -0.403587,-7.6e-4 -0.0017,0.9417 -0.0017,0.9417 -0.403587,-5.1e-4 -0.403586,-5.1e-4 0.0067,-3.63228 0.0067,-3.63228 -0.403587,-7.6e-4 z m 1.614347,0.003 -0.0043,2.28699 -0.0043,2.28699 0.807173,0.001 0.807174,10e-4 -0.0017,0.94171 -0.0017,0.9417 0.403587,7.6e-4 0.403586,7.6e-4 0.0017,-0.9417 0.0017,-0.9417 1.21076,0.002 1.21076,0.002 -0.0017,0.94171 -0.0017,0.9417 0.403587,7.6e-4 0.403586,7.6e-4 0.0025,-1.34529 0.0025,-1.34528 -2.42152,-0.004 -2.42152,-0.004 0.0025,-1.34529 0.0025,-1.34529 5.246627,0.01 5.246627,0.01 -0.0015,0.80718 -0.0015,0.80717 0.403586,7.6e-4 0.403587,7.6e-4 0.0015,-0.80717 0.0015,-0.80717 1.210757,0.002 1.21076,0.002 -0.001,0.80718 -0.001,0.80717 1.21076,0.002 1.21076,0.002 7.6e-4,-0.40358 7.7e-4,-0.40359 -0.80718,-10e-4 -0.80717,-0.001 7.6e-4,-0.40359 7.6e-4,-0.40358 1.21076,0.002 1.21076,0.002 -0.006,3.09417 -0.006,3.09416 -1.21076,-0.002 -1.21076,-0.002 0.002,-0.9417 0.002,-0.9417 -0.40359,-7.6e-4 -0.40358,-7.6e-4 -0.002,0.9417 -0.002,0.9417 -0.80717,-0.002 -0.80718,-0.002 -0.007,3.63229 -0.007,3.63227 -0.807172,-0.002 -0.807174,-0.002 -7.62e-4,0.40359 -7.63e-4,0.40358 0.807174,0.002 0.807167,0.002 -0.002,1.34529 -0.002,1.34529 -0.807171,-0.002 -0.807173,-0.002 -7.63e-4,0.40358 -7.62e-4,0.40359 0.807173,0.002 0.807166,0.002 -0.006,3.22869 -0.006,3.2287 -0.807166,-0.002 -0.807173,-0.002 -0.0025,1.34529 -0.0025,1.34528 0.403587,5.1e-4 0.403586,5.1e-4 0.0017,-0.9417 0.0017,-0.9417 0.403587,5.1e-4 0.403589,5.1e-4 -0.004,2.28698 -0.004,2.287 -1.614352,-0.003 -1.614347,-0.003 -0.0015,0.80717 -0.0015,0.80718 -2.017933,-0.004 -2.017934,-0.004 0.0015,-0.80718 0.0015,-0.80717 -0.403586,-5.1e-4 -0.403587,-5.1e-4 -0.004,2.15246 -0.004,2.15247 0.403586,5.1e-4 0.403587,5e-4 0.0015,-0.80717 0.0015,-0.80718 1.21076,0.002 1.21076,0.002 -0.004,2.15246 -0.004,2.15247 -1.614347,-0.003 -1.614347,-0.003 -0.0025,1.3453 -0.0025,1.34528 0.403587,5.1e-4 0.403587,5.1e-4 0.0015,-0.80717 0.0015,-0.80717 1.614346,0.003 1.614347,0.003 0.0035,-1.88341 0.0035,-1.8834 1.21076,0.002 1.21076,0.002 -0.006,3.22869 -0.006,3.22869 -0.807173,-0.002 -0.807173,-0.002 -7.63e-4,0.40359 -7.63e-4,0.40359 1.21076,0.002 1.21076,0.002 0.0092,-4.97758 0.0092,-4.97756 -0.403586,-5.1e-4 -0.403587,-5.1e-4 -0.0017,0.9417 -0.0017,0.94171 -1.21076,-0.002 -1.21076,-0.002 7.63e-4,-0.40359 7.62e-4,-0.40359 0.807174,0.002 0.807173,0.002 0.0017,-0.9417 0.0017,-0.9417 1.21076,0.002 1.210756,0.002 -0.0107,5.78474 -0.0108,5.78475 -0.807166,-0.002 -0.807174,-0.002 -0.001,0.53811 -10e-4,0.53812 0.807174,0.002 0.807176,0.002 -0.006,3.09417 -0.006,3.09416 -1.210764,-0.002 -1.21076,-0.002 0.0033,-1.74888 0.0033,-1.74887 -0.403587,-5.1e-4 -0.403587,-5.1e-4 -0.0033,1.74888 -0.0033,1.74888 -2.42152,-0.005 -2.42152,-0.005 -7.63e-4,0.40358 -7.63e-4,0.40359 2.421521,0.005 2.421519,0.005 -0.0025,1.34529 -0.0025,1.34529 -0.403586,-5.1e-4 -0.403587,-5.1e-4 0.0015,-0.80717 0.0015,-0.80718 -0.403587,-5.1e-4 -0.403586,-5.1e-4 -0.0015,0.80717 -0.0015,0.80718 -0.403587,-5.1e-4 -0.403587,-5.1e-4 0.0015,-0.80717 0.0015,-0.80717 -1.21076,-0.002 -1.21076,-0.002 -7.62e-4,0.40359 -7.63e-4,0.40358 0.807173,0.002 0.807174,0.002 -0.0017,0.94171 -0.0017,0.9417 0.807173,0.002 0.807173,0.002 -0.0015,0.80717 -0.0015,0.80717 0.403586,5.1e-4 0.403587,5.1e-4 0.0015,-0.80717 0.0015,-0.80717 1.210761,0.002 1.210759,0.002 -0.0015,0.80718 -0.0015,0.80717 2.017933,0.004 2.01794,0.004 0.001,-0.80717 0.001,-0.80718 0.80718,0.002 0.80717,0.002 10e-4,-0.53811 0.001,-0.53812 -1.61435,-0.003 -1.61435,-0.003 7.6e-4,-0.40359 7.7e-4,-0.40359 1.61434,0.003 1.61435,0.003 7.6e-4,-0.40358 7.7e-4,-0.40359 -2.82511,-0.005 -2.825109,-0.005 -7.63e-4,0.40359 -7.63e-4,0.40359 0.807174,0.002 0.807171,0.002 -0.002,0.94171 -0.002,0.9417 0.80717,0.002 0.80717,0.002 -7.6e-4,0.40359 -7.6e-4,0.40359 -1.21076,-0.002 -1.210764,-0.002 0.0017,-0.9417 0.0017,-0.94171 -0.807174,-0.002 -0.807173,-0.002 0.0025,-1.34529 0.0025,-1.34529 3.632281,0.007 3.63228,0.007 -0.004,2.28698 -0.004,2.287 -0.80717,-0.002 -0.80718,-0.002 -7.6e-4,0.40359 -7.6e-4,0.40359 1.21076,0.002 1.21076,0.002 0.003,-1.74887 0.003,-1.74888 1.61434,0.003 1.61435,0.003 7.6e-4,-0.40359 7.7e-4,-0.40358 -1.61435,-0.003 -1.61435,-0.003 10e-4,-0.53811 0.001,-0.53811 2.01793,0.004 2.01793,0.004 -0.004,2.28699 -0.004,2.287 -0.40359,-5.1e-4 -0.40358,-5.1e-4 0.002,-0.9417 0.002,-0.94171 -1.21076,-0.002 -1.21076,-0.002 -10e-4,0.53812 -0.001,0.53812 0.80717,0.002 0.80718,0.002 -0.001,0.80717 -10e-4,0.80718 1.21076,0.002 1.21076,0.002 0.005,-2.69058 0.005,-2.69058 3.63229,0.007 3.63227,0.007 -0.001,0.53811 -10e-4,0.53811 -0.80717,-0.002 -0.80717,-0.002 -10e-4,0.80717 -0.001,0.80718 -0.80717,-0.002 -0.80718,-0.002 -0.002,0.94171 -0.002,0.9417 -0.80718,-0.002 -0.80717,-0.002 -7.6e-4,0.40359 -7.7e-4,0.40359 1.21076,0.002 1.21076,0.002 0.001,-0.80717 10e-4,-0.80718 0.80718,0.002 0.80717,0.002 0.002,-0.94169 0.002,-0.94171 2.42151,0.005 2.42152,0.005 5.1e-4,-0.40359 5.1e-4,-0.40358 -1.61434,-0.003 -1.61435,-0.003 0.001,-0.53811 10e-4,-0.53812 0.80718,0.002 0.80717,0.002 0.002,-0.80717 0.002,-0.80717 1.61435,0.003 1.61434,0.003 0.002,-0.94171 0.002,-0.94169 0.40358,5.1e-4 0.40359,5e-4 -0.003,1.34529 -0.003,1.34529 -1.61435,-0.003 -1.61435,-0.003 -5.1e-4,0.40359 -5.1e-4,0.40359 0.80717,0.002 0.80718,0.002 -0.003,1.34528 -0.003,1.34529 -0.80717,-0.002 -0.80717,-0.002 -0.003,1.3453 -0.003,1.34528 0.40358,5.1e-4 0.40359,5.1e-4 0.002,-0.80718 0.002,-0.80717 0.80718,0.002 0.80717,0.002 0.004,-1.8834 0.004,-1.8834 0.80717,0.002 0.807167,0.002 0.006,-3.09417 0.006,-3.09416 -1.210757,-0.002 -1.21076,-0.002 -5.1e-4,0.40359 -5.1e-4,0.40358 0.80717,0.002 0.80718,0.002 -0.001,0.53811 -10e-4,0.53812 -0.80717,-0.002 -0.80718,-0.002 -0.002,0.80717 -0.002,0.80718 -1.21076,-0.002 -1.21076,-0.002 0.006,-3.09417 0.006,-3.09416 0.80717,0.002 0.80718,0.002 5e-4,-0.40358 5.1e-4,-0.40359 -0.80717,-0.002 -0.80717,-0.002 10e-4,-0.53812 0.001,-0.53811 1.61435,0.003 1.61435,0.003 5e-4,-0.40359 5.1e-4,-0.40358 -2.01793,-0.004 -2.01794,-0.004 -0.01,5.38115 -0.01,5.38116 -9.28249,-0.0172 -9.28249,-0.0172 0.0392,-21.12104 0.0392,-21.12104 2.42152,0.005 2.42152,0.005 0.007,-4.03587 0.007,-4.03586 -9.282497,-0.0172 z" /><text
       xml:space="preserve"
       transform="matrix(0.13452889,2.4985929e-4,-2.4985929e-4,0.13452889,55.54984,15.225948)"
       id="text5"
       style="font-style:normal;font-variant:normal;font-weight:normal;font-stretch:normal;font-size:32px;line-height:normal;font-family:'Curlz MT';-inkscape-font-specification:'Curlz MT, Normal';font-variant-ligatures:normal;font-variant-position:normal;font-variant-caps:normal;font-variant-numeric:normal;font-variant-alternates:normal;font-variant-east-asian:normal;text-indent:0;text-align:start;text-decoration-line:none;text-decoration-style:solid;text-decoration-color:#000000;letter-spacing:normal;word-spacing:normal;text-transform:none;writing-mode:lr-tb;direction:ltr;text-orientation:mixed;dominant-baseline:auto;baseline-shift:baseline;white-space:pre;shape-inside:url(#rect5);shape-padding:0;shape-margin:0;display:inline;opacity:1;fill:#f6f7f8;fill-opacity:1;stroke:none;stroke-width:0.743334;stroke-linecap:round;stroke-linejoin:round;stroke-miterlimit:4;stroke-dasharray:none;stroke-dashoffset:0;stroke-opacity:1;stop-color:#000000;stop-opacity:1"><tspan
         x="224.00977"
         y="888.26866"
         id="tspan1">A Mathemagical</tspan></text><text
       xml:space="preserve"
       transform="matrix(0.13452889,2.4985929e-4,-2.4985929e-4,0.13452889,76.707933,21.574704)"
       id="text6"
       style="font-style:normal;font-variant:normal;font-weight:normal;font-stretch:normal;font-size:32px;line-height:normal;font-family:'Curlz MT';-inkscape-font-specification:'Curlz MT, Normal';font-variant-ligatures:normal;font-variant-position:normal;font-variant-caps:normal;font-variant-numeric:normal;font-variant-alternates:normal;font-variant-east-asian:normal;text-indent:0;text-align:start;text-decoration-line:none;text-decoration-style:solid;text-decoration-color:#000000;letter-spacing:normal;word-spacing:normal;text-transform:none;writing-mode:lr-tb;direction:ltr;text-orientation:mixed;dominant-baseline:auto;baseline-shift:baseline;white-space:pre;shape-inside:url(#rect6);shape-padding:0;shape-margin:0;display:inline;opacity:1;fill:#f6f7f8;fill-opacity:1;stroke:none;stroke-width:0.743334;stroke-linecap:round;stroke-linejoin:round;stroke-miterlimit:4;stroke-dasharray:none;stroke-dashoffset:0;stroke-opacity:1;stop-color:#000000;stop-opacity:1"><tspan
         x="105.52539"
         y="870.99131"
         id="tspan2">Adventure</tspan></text></g></svg>
