<?xml version="1.0" encoding="UTF-8"?>
<svg width="512" height="512" version="1.1" viewBox="0 0 512 512" xml:space="preserve" xmlns="http://www.w3.org/2000/svg"><g><g transform="matrix(1.2523 0 0 1.2523 75.796 -62.412)" fill-rule="evenodd" stroke-width=".79851"><path d="m184.64 127.11a44.625 44.625 0 0 1-44.973 44.146 44.625 44.625 0 0 1-44.273-44.849 44.625 44.625 0 0 1 44.724-44.399 44.625 44.625 0 0 1 44.525 44.599" fill="#388625" stroke-width="0"/><path transform="translate(-18.738)" d="m113.28 406.97 0.2474-80.854a0.12232 0.12232 45.127 0 0-0.12216-0.12269l-22.596-0.0308a22.431 22.431 45.048 0 1-22.4-22.438l0.02901-95.666a22.419 22.419 135 0 1 22.414-22.412l135.23-0.0279a22.4 22.4 44.997 0 1 22.405 22.403l-0.011 95.687a22.304 22.304 135.14 0 1-22.409 22.302l-22.687-0.10682a0.12192 0.12192 135.13 0 0-0.12249 0.12195l0.0207 81.302a22.363 22.363 135.04 0 1-22.401 22.368l-45.254-0.0785a22.377 22.377 45.137 0 1-22.339-22.446z" fill="#388625"/><path d="m184.4 124.2a44.625 41.641 0 0 1-44.973 41.194 44.625 41.641 0 0 1-44.273-41.85 44.625 41.641 0 0 1 44.724-41.43 44.625 41.641 0 0 1 44.525 41.617" fill="#469e31" stroke-linecap="round" stroke-linejoin="round" stroke-width=".6036"/><path transform="matrix(1 0 0 .97862 -18.983 2.0753)" d="m113.28 406.97 0.2474-80.854a0.12232 0.12232 45.127 0 0-0.12216-0.12269l-22.596-0.0308a22.431 22.431 45.048 0 1-22.4-22.438l0.02901-95.666a22.419 22.419 135 0 1 22.414-22.412l135.23-0.0279a22.4 22.4 44.997 0 1 22.405 22.403l-0.011 95.687a22.304 22.304 135.14 0 1-22.409 22.302l-22.687-0.10682a0.12192 0.12192 135.13 0 0-0.12249 0.12195l0.0207 81.302a22.363 22.363 135.04 0 1-22.401 22.368l-45.254-0.0785a22.377 22.377 45.137 0 1-22.339-22.446z" fill="#469e31"/></g></g></svg>
