<?xml version="1.0" encoding="UTF-8"?>
<svg width="48" height="48" version="1.1" viewBox="0 0 48 48" xml:space="preserve" xmlns="http://www.w3.org/2000/svg"><g stroke="#000"><path d="m-34.15 21.016a0.46648 1.0822 0 0 1-0.01727 0.01825" fill-opacity="0" stroke-width=".1"/><g stroke-width=".003125"><path d="m34.463 18.633c-2.8062-2.5492-4.4704-4.5017-4.5331-5.3186-0.0142-0.18476-0.01151-0.19255 0.14058-0.40712 0.70376-0.99283 1.9509-1.9402 3.4784-2.6424 1.6819-0.77318 3.7175-1.2817 5.1694-1.2915 1.0681-0.0072 1.1864 0.10352 1.1823 1.1058-8e-3 1.9366-1.0067 4.8063-2.3138 6.6485-0.67463 0.95084-1.494 1.7499-2.3113 2.2541l-0.25528 0.15747z" fill="#ea659b"/><path d="m13.912 19.098c-0.94413-0.59274-1.7567-1.4146-2.4751-2.5034-0.9802-1.4855-1.7134-3.3652-2.0356-5.2188-0.0755-0.43434-0.08707-0.58412-0.0881-1.1406-1e-3 -0.56844 0.0058-0.65823 0.06109-0.79688 0.0519-0.13022 0.08636-0.16821 0.2069-0.22806 0.52997-0.26314 2.1853-0.09987 3.9079 0.38545 1.6984 0.47854 3.2507 1.2345 4.3842 2.135 0.5121 0.40686 1.2685 1.2273 1.382 1.4991 0.15375 0.36798-0.34368 1.2217-1.4414 2.4739-0.64604 0.73692-2.1333 2.2049-3.3188 3.2758l-0.31642 0.28583z" fill="#ea659b"/><path d="m22.265 37.42c-2.1123-0.10705-3.9903-0.35272-5.1056-0.66786-0.46791-0.13222-1.0371-0.36374-1.5506-0.63073-2.6148-1.3594-4.0088-3.9074-4.2805-7.8238-0.04057-0.585-0.04053-2.3131 7.3e-5 -2.7969 0.18173-2.1652 0.8466-4.3051 1.9904-6.4062 1.367-2.511 3.3497-4.8279 5.3524-6.2546 1.2855-0.91573 3.2813-1.6374 5.1406-1.8586 0.55762-0.06637 1.6604-0.05052 2.1986 0.03159 1.3455 0.20528 2.4421 0.64382 4.1232 1.6488 0.6627 0.3962 1.0113 0.63556 1.4819 1.0176 0.44549 0.36163 1.4746 1.3882 1.9044 1.8997 2.2046 2.6237 3.7036 5.7661 4.2115 8.8281 0.3172 1.9127 0.21918 4.3356-0.25125 6.2099-0.63427 2.5271-1.9499 4.3545-3.8245 5.3121-1.5997 0.81719-4.1471 1.3277-7.4499 1.493-0.72372 0.03623-3.2114 0.03497-3.9407-2e-3zm13.336-6.5677c-0.0072-0.02148-0.03952-0.0442-0.07192-0.05048-0.05097-0.0099-0.05327-0.0046-0.01702 0.03906 0.04957 0.05973 0.1075 0.06716 0.08894 0.01142z" fill="#ff88b6"/><path d="m23.749 34.342c-0.05156-0.0071-0.22734-0.02777-0.39062-0.04605-0.4289-0.04801-1.1494-0.19687-1.5702-0.32444-2.1922-0.66448-3.7774-2.0708-4.229-3.7517-0.3981-1.4818 0.15358-3.0263 1.4959-4.1879 1.11-0.96059 2.5213-1.5515 4.3033-1.8017 0.19391-0.02723 0.60576-0.04114 1.1875-0.0401 0.74765 0.0013 0.95842 0.01221 1.3129 0.06774 1.0107 0.15832 1.8172 0.4015 2.609 0.78668 1.599 0.77783 2.6634 1.9424 3.0225 3.3069 0.08967 0.34067 0.09708 0.40829 0.09859 0.89961 0.0014 0.44499-0.0094 0.5751-0.06617 0.80128-0.21634 0.86168-0.585 1.5055-1.2425 2.1699-1.0447 1.0557-2.5672 1.771-4.3593 2.0479-0.32913 0.05086-0.60423 0.06735-1.2501 0.07496-0.45547 0.0054-0.87031 4e-3 -0.92188-0.0031z" fill="#ea659b"/><path d="m18.788 21.609c-0.40643-0.10236-0.72908-0.41053-0.84755-0.80952-0.06569-0.22124-0.06367-0.39143 0.0074-0.61964 0.1148-0.36885 0.3922-0.64707 0.75898-0.76123 0.23868-0.07429 0.40909-0.07429 0.64777 0 0.50732 0.1579 0.86252 0.68389 0.80366 1.1901-0.02679 0.23045-0.16934 0.5273-0.33067 0.68864-0.25504 0.25504-0.71584 0.39319-1.0395 0.31166z" fill="#2b0000"/><path d="m29.709 21.456c-0.3017-0.112-0.50576-0.29488-0.66672-0.59748-0.06459-0.12144-0.07431-0.18249-0.07445-0.46779-1.35e-4 -0.28566 0.0098-0.34834 0.07676-0.48438 0.09936-0.20183 0.3505-0.45187 0.54508-0.54269 0.56874-0.26545 1.2243-0.02841 1.5055 0.54439 0.08028 0.16351 0.09123 0.21954 0.09123 0.46705 0 0.24269-0.0121 0.30743-0.08825 0.4722-0.18033 0.3902-0.55396 0.63914-0.98926 0.65914-0.17696 0.0081-0.27572-0.0043-0.39993-0.05044z" fill="#2b0000"/><path d="m21.578 30.216c-0.331-0.08896-0.59761-0.3157-0.74787-0.63605-0.06873-0.14654-0.08129-0.21684-0.08129-0.45521 0-0.2549 0.0097-0.30167 0.10156-0.48821 0.12069-0.24515 0.31728-0.4373 0.56484-0.5521 0.14682-0.06808 0.22308-0.08239 0.44297-0.08314 0.22831-7.76e-4 0.2932 0.01183 0.46194 0.08975 0.25456 0.11755 0.50606 0.38324 0.60092 0.63483 0.23861 0.63281-0.14371 1.3412-0.80825 1.4976-0.22033 0.05186-0.31907 0.05047-0.53483-0.0075z" fill="#a0336f"/><path d="m26.699 30.334c-0.33712-0.11179-0.5475-0.30584-0.70926-0.65417-0.11956-0.25746-0.11675-0.59887 0.0072-0.87368 0.10784-0.23914 0.35098-0.47877 0.60328-0.59457 0.25555-0.11729 0.60378-0.11739 0.859-2.46e-4 0.24524 0.11256 0.37404 0.21692 0.50374 0.40815 0.49615 0.73153 0.01797 1.7061-0.86297 1.7589-0.16603 0.0099-0.27276-0.0019-0.40097-0.04439z" fill="#a0336f"/></g></g></svg>
