<?xml version="1.0" encoding="UTF-8"?>
<svg width="512" height="512" version="1.1" viewBox="0 0 512 512" xml:space="preserve" xmlns="http://www.w3.org/2000/svg"><path d="m304.59 392.43c2.3957 5.5713 8.6914 28.247 11.31 28.247s14.486 1.56 16.046-0.0606c1.56-1.6157 2.3956-29.027 0.50123-29.083-1.8943-0.0606-27.857 0.89152-27.857 0.89152z" fill="#937" stroke="#000" stroke-width=".1"/><path d="m374.99 383.63c-1.294 7.7707 9.2977 37.767 12.099 37.767 2.8013 0 15.496 2.0858 17.165-0.0707 1.6688-2.1603 2.5629-38.81 0.53654-38.885-2.0264-0.0707-29.689 0.52341-29.689 0.52341z" fill="#937"/><path transform="matrix(-5.8409 0 0 5.8409 592.76 64.918)" d="m51.968 41.703c-0.8084-0.75276-0.70123-2.0503 0.0478-2.8015 0.97152-0.97438 2.5835-0.82509 3.5047 0.13697 1.1452 1.196 0.95178 3.1334-0.23062 4.2281-1.2304 1.1392-3.1499 1.1403-4.4621 0.13919" fill-opacity="0" stroke="#000" stroke-linecap="round" stroke-width=".34241"/><path d="m273.11 421.97c-3.0406-0.81087-0.87741-68.944-0.53251-72.654 3.0604-32.944 24.204-40.109 42.98-40.452 21.552-0.39334 53.226-0.93187 85.694-0.93187 18.898 0 20.864 34.322 20.758 48.835-0.13318 18.23-22.738 34.007-37.791 35.928-2.8869 0.36812-11.615 0.7927-12.669 2.0489-3.7051 4.4164-6.7509 25.886-9.9524 26.028-3.9732 0.17549-14.836 1.8578-17.166-0.53249-1.9747-2.0262 0.0504-25.595-1.5783-26.966-2.6885-2.2664-39.709-1.9355-41.597 0.43669-2.16 2.7148-3.398 28.126-9.6522 27.86-6.2542-0.26624-16.053 1.0507-16.825 0.84514z" fill="#ff78ae" stroke="#000" stroke-width=".5"/><g transform="matrix(2.8746 0 0 2.8553 339.32 247.09)" stroke="#000"><path d="m35.479 20.444c-2.8062-2.5492-4.4704-4.5017-4.5331-5.3186-0.0142-0.18476-0.01151-0.19255 0.14058-0.40712 0.70376-0.99283 1.9509-1.9402 3.4784-2.6424 1.6819-0.77318 3.7175-1.2817 5.1694-1.2915 1.0681-0.0072 1.1864 0.10352 1.1823 1.1058-8e-3 1.9366-1.0067 4.8063-2.3138 6.6485-0.67463 0.95084-1.494 1.7499-2.3113 2.2541l-0.25528 0.15747z" fill="#ea659b" stroke-width=".00030986"/><path d="m14.929 20.91c-0.94413-0.59274-1.7567-1.4146-2.4751-2.5034-0.9802-1.4855-1.7134-3.3652-2.0356-5.2188-0.0755-0.43434-0.08707-0.58412-0.0881-1.1406-1e-3 -0.56844 0.0058-0.65823 0.06109-0.79688 0.0519-0.13022 0.08636-0.16821 0.2069-0.22806 0.52997-0.26314 2.1853-0.09987 3.9079 0.38545 1.6984 0.47854 3.2507 1.2345 4.3842 2.135 0.5121 0.40686 1.2685 1.2273 1.382 1.4991 0.15375 0.36798-0.34368 1.2217-1.4414 2.4739-0.64604 0.73692-2.1333 2.2049-3.3188 3.2758l-0.31642 0.28583z" fill="#ea659b" stroke-width=".00030986"/><path d="m23.281 39.232c-2.1123-0.10705-3.9903-0.35272-5.1056-0.66786-0.46791-0.13222-1.0371-0.36374-1.5506-0.63073-2.6148-1.3594-4.0088-3.9074-4.2805-7.8238-0.04057-0.585-0.04053-2.3131 7.3e-5 -2.7969 0.18173-2.1652 0.8466-4.3051 1.9904-6.4062 1.367-2.511 3.3497-4.8279 5.3524-6.2546 1.2855-0.91573 3.2813-1.6374 5.1406-1.8586 0.55762-0.06637 1.6604-0.05052 2.1986 0.03159 1.3455 0.20528 2.4421 0.64382 4.1232 1.6488 0.6627 0.3962 1.0113 0.63556 1.4819 1.0176 0.44549 0.36163 1.4746 1.3882 1.9044 1.8997 2.2046 2.6237 3.7036 5.7661 4.2115 8.8281 0.3172 1.9127 0.21918 4.3356-0.25125 6.2099-0.63427 2.5271-1.9499 4.3545-3.8245 5.3121-1.5997 0.81719-4.1471 1.3277-7.4499 1.493-0.72372 0.03623-3.2114 0.03497-3.9407-2e-3zm13.336-6.5677c-0.0072-0.02148-0.03952-0.0442-0.07192-0.05048-0.05097-0.0099-0.05327-0.0046-0.01702 0.03906 0.04957 0.05973 0.1075 0.06716 0.08894 0.01142z" fill="#ff88b6" stroke-width=".035254"/><g stroke-width=".00030986"><path d="m24.766 36.153c-0.05156-0.0071-0.22734-0.02777-0.39062-0.04605-0.4289-0.04801-1.1494-0.19687-1.5702-0.32444-2.1922-0.66448-3.7774-2.0708-4.229-3.7517-0.3981-1.4818 0.15358-3.0263 1.4959-4.1879 1.11-0.96059 2.5213-1.5515 4.3033-1.8017 0.19391-0.02723 0.60576-0.04114 1.1875-0.0401 0.74765 0.0013 0.95842 0.01221 1.3129 0.06774 1.0107 0.15832 1.8172 0.4015 2.609 0.78668 1.599 0.77783 2.6634 1.9424 3.0225 3.3069 0.08967 0.34067 0.09708 0.40829 0.09859 0.89961 0.0014 0.44499-0.0094 0.5751-0.06617 0.80128-0.21634 0.86168-0.585 1.5055-1.2425 2.1699-1.0447 1.0557-2.5672 1.771-4.3593 2.0479-0.32913 0.05086-0.60423 0.06735-1.2501 0.07496-0.45547 0.0054-0.87031 4e-3 -0.92188-0.0031z" fill="#ea659b"/><path d="m19.804 23.421c-0.40643-0.10236-0.72908-0.41053-0.84755-0.80952-0.06569-0.22124-0.06367-0.39143 0.0074-0.61964 0.1148-0.36885 0.3922-0.64707 0.75898-0.76123 0.23868-0.07429 0.40909-0.07429 0.64777 0 0.50732 0.1579 0.86252 0.68389 0.80366 1.1901-0.02679 0.23045-0.16934 0.5273-0.33067 0.68864-0.25504 0.25504-0.71584 0.39319-1.0395 0.31166z" fill="#2b0000"/><path d="m30.726 23.268c-0.3017-0.112-0.50576-0.29488-0.66672-0.59748-0.06459-0.12144-0.07431-0.18249-0.07445-0.46779-1.35e-4 -0.28566 0.0098-0.34834 0.07676-0.48438 0.09936-0.20183 0.3505-0.45187 0.54508-0.54269 0.56874-0.26545 1.2243-0.02841 1.5055 0.54439 0.08028 0.16351 0.09123 0.21954 0.09123 0.46705 0 0.24269-0.0121 0.30743-0.08825 0.4722-0.18033 0.3902-0.55396 0.63914-0.98926 0.65914-0.17696 0.0081-0.27572-0.0043-0.39993-0.05044z" fill="#2b0000"/><path d="m22.595 32.028c-0.331-0.08896-0.59761-0.3157-0.74787-0.63605-0.06873-0.14654-0.08129-0.21684-0.08129-0.45521 0-0.2549 0.0097-0.30167 0.10156-0.48821 0.12069-0.24515 0.31728-0.4373 0.56484-0.5521 0.14682-0.06808 0.22308-0.08239 0.44297-0.08314 0.22831-7.76e-4 0.2932 0.01183 0.46194 0.08975 0.25456 0.11755 0.50606 0.38324 0.60092 0.63483 0.23861 0.63281-0.14371 1.3412-0.80825 1.4976-0.22033 0.05186-0.31907 0.05047-0.53483-0.0075z" fill="#a0336f"/><path d="m27.716 32.146c-0.33712-0.11179-0.5475-0.30584-0.70926-0.65417-0.11956-0.25746-0.11675-0.59887 0.0072-0.87368 0.10784-0.23914 0.35098-0.47877 0.60328-0.59457 0.25555-0.11729 0.60378-0.11739 0.859-2.46e-4 0.24524 0.11256 0.37404 0.21692 0.50374 0.40815 0.49615 0.73153 0.01797 1.7061-0.86297 1.7589-0.16603 0.0099-0.27276-0.0019-0.40097-0.04439z" fill="#a0336f"/></g></g><g stroke-linecap="round"><g stroke="#000"><path d="m325.2 420.73c-0.34694-0.0301-2.4031-0.1724-4.5699-0.3086-5.2113-0.32979-4.843-0.25112-5.4189-1.1488-0.70195-1.094-1.9053-3.7258-2.8584-6.252-1.3782-3.6527-6.7579-19.69-6.6427-19.802 0.36912-0.35903 18.885-1.0196 23.609-0.84213 2.9523 0.11097 3.0277 0.12198 3.1136 0.46393 0.66159 2.6352 0.6172 15.431-0.0806 22.465-0.20271 2.0573-0.58695 4.379-0.78462 4.7494-0.0806 0.15325-0.41452 0.355-0.73826 0.44677-0.61419 0.1744-4.5377 0.33383-5.6317 0.22896z" fill="#ff78ae" stroke-width=".0069844"/><path d="m396.12 421.51c-0.93592-0.0907-5.7678-0.5335-7.4802-0.67974-1.4746-0.12506-1.4981-0.1341-2.0149-0.73119-1.5282-1.7678-4.8275-9.676-7.2924-17.479-1.0306-3.263-2.4159-8.426-2.2936-8.5485 0.0504-0.0504 1.7434-0.25718 3.7576-0.45585 2.0143-0.19868 4.336-0.47805 5.1593-0.62126 5.2412-0.91373 12.025-3.8149 17.511-7.4885l1.3583-0.90968 0.10391 0.88045c0.22794 1.9382 0.41854 9.9816 0.33182 13.991-0.23197 10.684-0.70296 17.909-1.3539 20.75-0.25718 1.1222-0.75034 1.2728-4.319 1.3192-1.5601 0.0202-3.1202 7e-3 -3.4668-0.0302z" fill="#ff78b7" stroke-width=".0069844"/><path d="m272.02 414.91 24.602-0.78766" fill="#6c5353" stroke-width=".5"/></g><g stroke-width=".5"><path d="m312.6 414.4 20.131-0.0403" fill="#9a3277" stroke="#983376"/><path d="m343.69 414.1 21.104-0.0624" fill="#6c5353" stroke="#000"/><path d="m384.16 416.48 20.57 0.1576" fill="#6c5364" stroke="#9a3378"/></g></g><g fill="#999" stroke="#000" stroke-linecap="round" stroke-width=".00018359"><path d="m325.37 420.76c-4.2582-0.28165-9.0271-0.37764-9.7429-0.88405-0.43683-0.36156-1.2652-2.0695-2.6268-5.2213 15.683-0.10051 17.505-0.12791 19.402-0.0937 0.0279 0.16961-0.14376 1.6414-0.21532 2.2391-0.20776 1.7253-0.3119 2.8952-0.62732 3.2806-0.43017 0.52561-1.0866 0.53476-2.6143 0.62652-1.247 0.0598-2.3317 0.0782-3.5754 0.0529z"/><path d="m344.51 420.06c-0.63024-1.3634-0.7481-3.7217-0.74485-5.7449l10.803-0.0413c5.583-0.0203 6.346 0.0141 10.176-5e-3 -0.48836 1.7944-1.8797 5.8754-2.9458 6.2191-1.7277 0.29841-15.841 1.8724-17.288-0.42784z"/><path d="m396.51 421.51c-1.4939-0.0504-3.1299-0.17944-6.0276-0.472-2.5261-0.25515-2.7812-0.20295-3.1782-0.36728-0.37114-0.18153-0.84551-0.60662-1.4037-1.5922-0.27734-0.49015-1.1376-2.1076-1.2506-2.3767 0.0202-0.0203 19.71 0.14941 19.732 0.17155 0.0303 0.0301-0.20709 1.8471-0.3281 2.5517-0.18255 1.0612-0.23724 1.364-0.59082 1.6258-0.39803 0.29468-1.0658 0.49977-3.2587 0.56029-1.5132 0.0403-2.4356-0.0575-3.6947-0.0998z"/></g><path d="m272.13 415.13c6.9505-0.24563-0.0488-0.0174 24.319-0.77125-0.66947 3.0193-2.3635 6.8125-4.528 7.1651-6.3648-0.25217-16.277 0.93986-17.005 0.88321-0.6297-0.14006-1.6426-0.39233-1.8037-0.51002-0.54232-0.60579-0.92904-4.7588-0.98272-6.7671z" fill="#9a9a9a" fill-rule="evenodd" stroke-linecap="round" stroke-linejoin="round" stroke-width=".5"/><g transform="translate(17.678)" fill-rule="evenodd"><path d="m184.64 127.11a44.625 44.625 0 0 1-44.973 44.146 44.625 44.625 0 0 1-44.273-44.849 44.625 44.625 0 0 1 44.724-44.399 44.625 44.625 0 0 1 44.525 44.599" fill="#388625" stroke-width="0"/><path transform="translate(-18.738)" d="m113.28 406.97 0.2474-80.854a0.12232 0.12232 45.127 0 0-0.12216-0.12269l-22.596-0.0308a22.431 22.431 45.048 0 1-22.4-22.438l0.02901-95.666a22.419 22.419 135 0 1 22.414-22.412l135.23-0.0279a22.4 22.4 44.997 0 1 22.405 22.403l-0.011 95.687a22.304 22.304 135.14 0 1-22.409 22.302l-22.687-0.10682a0.12192 0.12192 135.13 0 0-0.12249 0.12195l0.0207 81.302a22.363 22.363 135.04 0 1-22.401 22.368l-45.254-0.0785a22.377 22.377 45.137 0 1-22.339-22.446z" fill="#388625"/><path d="m184.4 124.2a44.625 41.641 0 0 1-44.973 41.194 44.625 41.641 0 0 1-44.273-41.85 44.625 41.641 0 0 1 44.724-41.43 44.625 41.641 0 0 1 44.525 41.617" fill="#469e31" stroke-linecap="round" stroke-linejoin="round" stroke-width=".7559"/><path transform="matrix(1 0 0 .97862 -18.983 2.0753)" d="m113.28 406.97 0.2474-80.854a0.12232 0.12232 45.127 0 0-0.12216-0.12269l-22.596-0.0308a22.431 22.431 45.048 0 1-22.4-22.438l0.02901-95.666a22.419 22.419 135 0 1 22.414-22.412l135.23-0.0279a22.4 22.4 44.997 0 1 22.405 22.403l-0.011 95.687a22.304 22.304 135.14 0 1-22.409 22.302l-22.687-0.10682a0.12192 0.12192 135.13 0 0-0.12249 0.12195l0.0207 81.302a22.363 22.363 135.04 0 1-22.401 22.368l-45.254-0.0785a22.377 22.377 45.137 0 1-22.339-22.446z" fill="#469e31"/></g></svg>
