<?xml version="1.0" encoding="UTF-8"?>
<svg width="512" height="512" version="1.1" viewBox="0 0 512 512" xmlns="http://www.w3.org/2000/svg">
 <g fill-rule="evenodd">
  <path d="m233.99 319.56c-26.407 22.909-65.011 37.825-95.419-10.133-73.088-12.285-77.015-109.9-28.992-126.1-6.8114-77.258 30.965-95.829 76.842-87.257 51.597-61.579 107.45-32.115 123 2.2518 78.73-32.35 105.5 42.961 84.85 78.818 81.167 64.538 11.115 137.41-16.878 129.18-32.335 50.819-75.684 33.833-91.334 20.274-16.936 9.2084-47.913 4.9126-52.073-7.0368z" fill="#469e31"/>
  <g fill="#388625">
   <path d="m394.53 177.39c9.7812-16.607 11.558-59.954-20.935-78.988 37.494 30.296 9.618 70.056 20.935 78.988z"/>
   <path d="m309.38 98.329c-2.0407-11.259-24.793-36.214-54.788-37.935 40.309 25.792 24.911 38.269 54.788 37.935z"/>
   <path d="m431 230.76c6.7554 30.821-15.997 78.379-53.606 75.57-13.368 22.36-49.032 52.209-90.916 20.407-12.39 4.2783-43.864 14.729-52.776-7.1776 18.551 7.5297 32.963 4.3008 44.59 1.703 44.773 11.889 63.982-2.7261 99.62-29.24 35.503-3.5813 44.862-28.923 53.088-61.262z"/>
  </g>
  <path d="m141.71 246.8c-38.83 0.82166-53.457-55.484 1.1942-67.671-27.091-26.272 16.616-71.9 45.777-49.758 12.843-51.28 76.373-41.337 71.651 3.5826-4.2482 13.245-106.41 111.61-118.62 113.85z" fill="#4ebc34"/>
  <path d="m195.76 455.16c22.519-34.056 32.237-66.212 29.656-97.924-1.5482-19.736-39.816-61.838-39.806-73.642 4e-3 -5.5744 9.5462-11.022 15.724-10.151 5.5548 0.78352 32.562 47.124 40.005 45.18 8.3086-2.1697 6.317-50.033 14.529-65.68 2.8372-5.4058 15.196-3.443 18.311 0.39806 2.8678 3.5362-9.955 44.001-3.3835 51.748 4.6725 5.5082 14.712-14.908 28.86-22.292 4.3273-0.32668 10.71 3.735 9.5535 10.549-6.385 15.046-28.345 30.248-33.835 54.933-5.4022 31.862 8.4452 67.895 29.656 106.88-48.317 0.33352-51.938 0.58952-109.27 0z" fill="#bb783b"/>
  <path d="m309.17 293.2c-55.722 46.467-52.031 107.68-42.172 162.24 14.724-0.0519 24.883-0.20675 38.015-0.27653-14.499-31.779-32.948-66.547-30.551-101.58 3.807-27.964 31.257-48.355 34.708-60.383z" fill="#86562a"/>
 </g>
</svg>
